<svg width="376" height="33" viewBox="0 0 376 33" fill="none" xmlns="http://www.w3.org/2000/svg">
<g clip-path="url(#clip0_747_500)">
<path d="M45.6036 0.510834H38.2412V32.4892H65.3599V26.3161H45.6036V0.510834Z" fill="black"/>
<path d="M93.1142 0.510834H83.6762L69.4893 32.4892H77.1451L80.1661 25.6762H96.6243L99.6453 32.4892H107.301L93.1142 0.510834ZM82.9046 19.5032L88.3925 7.13557L93.8858 19.5032H82.9046Z" fill="black"/>
<path d="M168.396 16.5027C169.93 16.2064 171.33 15.4364 172.395 14.3034L185.278 0.510834H175.302L160.365 16.5027L175.264 32.4461L175.302 32.4892H185.278L172.395 18.6966C171.332 17.5632 169.931 16.7947 168.396 16.5027Z" fill="black"/>
<path d="M158.534 0.510834H151.171V32.4892H158.534V0.510834Z" fill="black"/>
<path d="M31.5525 9.65747C31.5525 3.50055 27.6349 0.516205 19.5987 0.516205H0V32.4892H19.5987C27.6567 32.4892 31.5525 29.4994 31.5525 23.3479C31.5525 20.1968 30.4658 17.8954 28.2326 16.5081C30.4658 15.11 31.5525 12.8085 31.5525 9.65747ZM24.1303 22.95C24.1303 25.2783 22.6904 26.3161 19.4738 26.3161H7.36243V19.5892H19.4846C22.7013 19.5892 24.1412 20.627 24.1412 22.95H24.1303ZM19.4738 13.4108H7.36243V6.68387H19.4846C22.7013 6.68387 24.1412 7.72168 24.1412 10.05C24.1412 12.373 22.7013 13.4108 19.4846 13.4108H19.4738Z" fill="black"/>
<path d="M137.197 20.1431C136.11 24.4448 132.85 26.6441 127.416 26.6441C120.652 26.6441 117.223 23.2565 117.223 16.5672V16.4328C117.223 9.74352 120.652 6.35588 127.416 6.35588C132.817 6.35588 136.11 8.54978 137.197 12.8569H144.88C143.532 4.56526 137.338 0 127.427 0C116.142 0 109.665 5.99022 109.665 16.4328V16.5672C109.665 27.0098 116.142 33 127.427 33C137.338 33 143.532 28.4347 144.88 20.1431H137.197Z" fill="black"/>
<path d="M305.696 0.510834H296.263L282.076 32.4892H289.727L292.748 25.6762H309.206L312.227 32.4892H319.877L305.696 0.510834ZM295.486 19.5032L300.979 7.13557L306.473 19.5032H295.486Z" fill="black"/>
<path d="M349.348 22.3477L333.205 0.510834H325.571V32.4892H332.939V10.6093L349.109 32.4892H356.711V0.510834H349.348V22.3477Z" fill="black"/>
<path d="M275.702 0.510834L269.264 22.6865L263.357 0.607624L263.33 0.510834H255.756L249.822 22.6865L243.384 0.510834H235.744L245.003 32.3924L245.03 32.4892H253.691L259.543 10.62L265.368 32.3924L265.395 32.4892H274.056L283.342 0.510834H275.702Z" fill="black"/>
<path d="M225.806 14.1367C223.011 13.5902 220.186 13.2024 217.346 12.9752C215.417 12.7763 213.603 12.5988 212.293 12.3622C209.212 11.8245 208.223 11.0771 208.223 9.3456C208.223 7.15707 210.592 6.04398 215.287 6.04398C220.889 6.04398 223.703 7.45281 224.404 10.6039H231.691C230.93 3.47367 225.643 0.0107422 215.531 0.0107422C206.039 0.0107422 200.812 3.55971 200.812 10.0231C200.812 14.5131 202.985 17.1211 207.713 18.2341C210.543 18.7969 213.404 19.1919 216.281 19.4171C218.112 19.5946 219.84 19.7666 221.085 19.9817C224.214 20.5571 225.214 21.3153 225.214 23.1113C225.214 25.7569 222.633 26.9883 217.091 26.9883C210.956 26.9883 207.789 25.2944 207.109 21.654H199.791C200.486 29.2897 206.045 33.0054 216.77 33.0054C226.98 33.0054 232.604 29.2413 232.604 22.3746C232.593 17.8631 230.381 15.1745 225.806 14.1367Z" fill="black"/>
<path d="M366.703 2.61334C366.691 2.88901 366.765 3.16175 366.914 3.39455C367.064 3.62735 367.283 3.80892 367.54 3.91462C367.211 4.04643 366.934 4.27877 366.748 4.57769C366.563 4.87662 366.478 5.22647 366.508 5.57617C366.492 5.852 366.543 6.1275 366.657 6.37994C366.77 6.63237 366.943 6.85452 367.16 7.02803C367.691 7.4082 368.336 7.59788 368.991 7.56575H372.012V0.510834H370.784V3.34463H368.855C368.727 3.35707 368.597 3.34396 368.474 3.3061C368.351 3.26824 368.236 3.20638 368.138 3.12416C367.969 2.89043 367.878 2.61037 367.877 2.32296L367.817 1.60241C367.834 1.22478 367.737 0.850749 367.54 0.526965H366.258C366.468 0.848119 366.584 1.22015 366.595 1.60241L366.703 2.61334ZM368.877 4.44159H370.779V6.43653H368.975C368.16 6.43653 367.747 6.10315 367.747 5.43638C367.747 4.7696 368.138 4.42008 368.882 4.42008L368.877 4.44159Z" fill="black"/>
<path d="M374.908 7.54424C375.605 6.50463 375.984 5.28791 376 4.04023C376.015 2.79256 375.666 1.56701 374.995 0.510834H373.403C374.27 1.48923 374.737 2.75327 374.711 4.05466C374.685 5.35605 374.168 6.60073 373.262 7.54424H374.908Z" fill="black"/>
<path d="M363.834 7.54424H365.464C364.558 6.60073 364.041 5.35605 364.015 4.05466C363.989 2.75327 364.455 1.48923 365.323 0.510834H363.731C363.06 1.56701 362.711 2.79256 362.726 4.04023C362.741 5.28791 363.121 6.50463 363.818 7.54424H363.834Z" fill="black"/>
</g>
<defs>
<clipPath id="clip0_747_500">
<rect width="376" height="33" fill="white"/>
</clipPath>
</defs>
</svg>
