<?xml version="1.0" encoding="utf-8"?>
<!-- Generator: Adobe Illustrator 25.4.1, SVG Export Plug-In . SVG Version: 6.00 Build 0)  -->
<svg version="1.1" id="Capa_1" xmlns="http://www.w3.org/2000/svg" xmlns:xlink="http://www.w3.org/1999/xlink" x="0px" y="0px"
	 viewBox="0 0 216.2 165.3" style="enable-background:new 0 0 216.2 165.3;" xml:space="preserve">
<style type="text/css">
	.st0{fill:#FFFFFF;}
</style>
<g>
	<g>
		<g>
			<path class="st0" d="M66.7,161.3h-8.4l-1.7,3.8h-2.9l7.2-15.7h3.3l7.2,15.7h-3L66.7,161.3z M65.6,158.9l-3.1-7.1l-3.1,7.1H65.6z"
				/>
			<path class="st0" d="M97.4,154.1L97.4,154.1c0,3.7-2.4,4.8-5.8,4.8h-6.3v6.2h-2.8v-15.7h9.1C95,149.3,97.4,150.4,97.4,154.1z
				 M94.6,154.1c0-1.9-1.2-2.3-3-2.3h-6.2v4.7h6.2C93.4,156.5,94.6,156,94.6,154.1L94.6,154.1z"/>
			<path class="st0" d="M111.9,149.3V165h-2.8v-15.7L111.9,149.3L111.9,149.3z"/>
			<path class="st0" d="M123.5,151.8v-2.5h15.9v2.5h-6.6V165h-2.8v-13.2H123.5z"/>
			<path class="st0" d="M159.6,161.3h-8.4l-1.7,3.8h-2.9l7.2-15.7h3.3l7.2,15.7h-3L159.6,161.3z M158.6,158.9l-3.1-7.1l-3.1,7.1
				H158.6z"/>
			<path class="st0" d="M178.3,149.3v13.2h10v2.5h-12.8v-15.7L178.3,149.3L178.3,149.3z"/>
			<path class="st0" d="M41.3,158.9c-0.3,2.3-1.9,3.9-5.2,3.9c-4,0-5.5-2.4-5.5-5.6v-0.1c0-3.2,1.5-5.6,5.5-5.6
				c3.3,0,4.9,1.6,5.2,3.9h2.8c-0.4-4-3.2-6.4-8-6.4c-5.6,0-8.3,3.2-8.3,8.1v0.1c0,4.9,2.8,8.1,8.3,8.1c4.8,0,7.6-2.3,8-6.4
				L41.3,158.9L41.3,158.9z"/>
		</g>
	</g>
	<g>
		<path class="st0" d="M136.6,39.5C136.5,39.5,136.5,39.5,136.6,39.5c-12.8,0-23.7,8.7-26.6,21.1c-0.2,0.9-1,1.5-1.9,1.5
			s-1.7-0.6-1.9-1.5c-2.9-12.4-13.7-21.1-26.5-21.1c0,0,0,0-0.1,0H0c4.5,9.4,14,15.5,24.6,15.5h27.5c1.1,0,2,0.9,2,2s-0.9,2-2,2
			H27.5c4.5,9.4,14,15.5,24.6,15.5h27.5c1.1,0,2,0.9,2,2s-0.9,2-2,2H55.1c4.5,9.4,14,15.5,24.6,15.5c5.1,0,10.1-1.4,14.4-4.2
			c0.8-0.5,1.8-0.4,2.4,0.3c0.7,0.6,0.8,1.6,0.3,2.4l-14.5,24.9h51.6l-14.5-24.9c-0.5-0.8-0.3-1.8,0.3-2.4c0.6-0.6,1.6-0.7,2.4-0.3
			c4.4,2.7,9.3,4.2,14.4,4.2c10.6,0,20.1-6.1,24.6-15.5h-24.6c-1.1,0-2-0.9-2-2s0.9-2,2-2h27.5c10.6,0,20.1-6.1,24.6-15.5h-24.6
			c-1.1,0-2-0.9-2-2s0.9-2,2-2h27.5c10.6,0,20.1-6.1,24.6-15.5L136.6,39.5L136.6,39.5z"/>
		<path class="st0" d="M100.8,40.4c4,4,10.5,4,14.6,0l0,0c0,0,7.3-7.3,0-21.9C108.1,3.9,108.1,0,108.1,0s0,3.9-7.3,18.5
			S100.8,40.4,100.8,40.4L100.8,40.4z"/>
	</g>
</g>
</svg>
