<svg width="102" height="112" viewBox="0 0 102 112" fill="none" xmlns="http://www.w3.org/2000/svg">
<path d="M79.4622 23.2642C79.5262 24.3566 79.4324 25.4628 79.1753 26.5584C78.9375 27.572 78.5663 28.5324 78.082 29.4236L91.7646 43.0818C91.7646 43.0818 94.5176 38.4641 89.2293 31.5466C87.7456 29.6056 86.6801 27.3772 86.0678 25.0135C86.0454 24.9273 86.022 24.8378 85.9985 24.7494C85.7233 24.7697 85.4492 24.7793 85.174 24.7793C83.1751 24.7782 81.203 24.2544 79.4622 23.2642Z" fill="white"/>
<path d="M93.4561 58.1891L58.3696 23.1619C58.3696 23.1619 58.3696 23.1619 58.3686 23.1619C56.2161 21.0133 56.5638 17.2975 59.4139 15.6557C59.7562 15.4587 60.1264 15.3086 60.5093 15.2138C62.2148 14.7911 63.9097 15.2734 65.0893 16.4521L76.0115 27.3548C76.2067 26.897 76.3656 26.42 76.4819 25.9249C77.0077 23.6879 76.6376 21.3817 75.442 19.4216C75.0484 18.7764 75.1774 17.915 75.8046 17.4923C76.4595 17.0494 77.3437 17.2432 77.7565 17.9075C79.4066 20.564 82.2683 22.0216 85.1909 22.0142C82.4592 13.605 75.7427 0 61.7295 0C56.4295 0 51.4473 2.06023 47.7002 5.8006C41.1331 12.355 40.1614 22.39 44.7425 29.9996L44.7126 30.0187C47.088 33.7037 50.2196 36.8436 53.9016 39.2307L60.3333 43.4001C65.3517 46.6529 68.8001 51.6613 70.0438 57.5034C71.2875 63.3456 70.1782 69.3208 66.9197 74.3303C63.6611 79.3387 58.6438 82.782 52.7912 84.0235C51.2265 84.3557 49.6522 84.5197 48.0885 84.5197C43.806 84.5197 39.6099 83.2878 35.9344 80.9049L15.083 67.3894C15.547 73.4359 18.8044 79.0161 23.9477 82.3508L30.7634 86.7694C30.806 86.7971 30.8455 86.8259 30.8839 86.8567C31.4258 87.2965 31.5591 88.0812 31.1708 88.6785C30.9063 89.0852 30.4626 89.3077 30.0093 89.3077C29.7512 89.3077 29.4898 89.2353 29.2573 89.0852L22.4416 84.6666C21.9819 84.3685 21.5371 84.0533 21.1041 83.7243C24.3295 99.3235 41.0691 111.247 61.1748 111.247C83.5813 111.247 101.81 96.4392 101.81 78.2389C101.81 70.7092 98.7007 63.7491 93.4561 58.1891Z" fill="white"/>
<path d="M22.607 34.7461L9.52491 26.2656C9.98889 32.3122 13.2464 37.8924 18.3896 41.2271L33.638 51.112C34.279 51.5272 34.4604 52.3822 34.0444 53.0221C34.0145 53.0689 33.9814 53.1115 33.9462 53.153C33.9356 53.1658 33.9238 53.1775 33.9132 53.1903C33.8876 53.219 33.862 53.2457 33.8342 53.2712C33.8214 53.284 33.8086 53.2957 33.7948 53.3074C33.766 53.333 33.735 53.3575 33.7041 53.3798C33.6924 53.3883 33.6817 53.3969 33.67 53.4054C33.6273 53.4352 33.5836 53.4618 33.5388 53.4863C33.5292 53.4916 33.5185 53.4959 33.5089 53.5001C33.4727 53.5182 33.4364 53.5353 33.398 53.5502C33.3809 53.5566 33.3649 53.5629 33.3479 53.5683C33.3148 53.58 33.2828 53.5906 33.2497 53.5991C33.2327 53.6034 33.2145 53.6087 33.1975 53.613C33.1591 53.6215 33.1207 53.629 33.0812 53.6343C33.0695 53.6364 33.0577 53.6385 33.046 53.6396C32.9959 53.646 32.9458 53.6481 32.8956 53.6492C32.8914 53.6492 32.8871 53.6503 32.8828 53.6503C32.8732 53.6503 32.8647 53.6481 32.8551 53.6481C32.8092 53.6471 32.7634 53.6439 32.7175 53.6385C32.7015 53.6364 32.6866 53.6353 32.6706 53.6322C32.614 53.6236 32.5586 53.6119 32.5031 53.596C32.4946 53.5938 32.4871 53.5906 32.4786 53.5874C32.4295 53.5725 32.3815 53.5544 32.3346 53.5342C32.3196 53.5278 32.3047 53.5214 32.2908 53.514C32.2364 53.4884 32.1831 53.4597 32.1309 53.4267L19.0488 44.9462C19.5127 50.9927 22.7702 56.5729 27.9145 59.9076L43.1629 69.7925C43.8039 70.2077 43.9853 71.0627 43.5693 71.7026C43.3048 72.1093 42.861 72.3318 42.4077 72.3318C42.1496 72.3318 41.8883 72.2595 41.6558 72.1093L28.5758 63.6299C29.0409 69.6764 32.2962 75.2566 37.4394 78.5903C41.8382 81.4416 47.0849 82.4126 52.2142 81.3234C57.3436 80.2353 61.7413 77.2179 64.5977 72.8269C67.4541 68.4371 68.4269 63.1987 67.3357 58.0784C66.2456 52.9582 63.2228 48.5683 58.8251 45.717L0 7.58405C0.46398 13.6306 3.72144 19.2108 8.86468 22.5455L9.53345 22.9788L24.1131 32.4304C24.7541 32.8456 24.9354 33.7006 24.5195 34.3405C24.1045 34.9793 23.247 35.1614 22.607 34.7461Z" fill="white"/>
</svg>
