<?xml version="1.0" encoding="utf-8"?>
<!-- Generator: Adobe Illustrator 25.4.1, SVG Export Plug-In . SVG Version: 6.00 Build 0)  -->
<svg version="1.1" id="Capa_1" xmlns="http://www.w3.org/2000/svg" xmlns:xlink="http://www.w3.org/1999/xlink" x="0px" y="0px"
	 viewBox="0 0 962.37 561.71" style="enable-background:new 0 0 962.37 561.71;" xml:space="preserve">
<style type="text/css">
	.st0{fill:#CCCCCD;}
	.st1{fill:#FFFFFF;}
	.st2{fill:#1D1D1B;}
</style>
<g>
	<g>
		<path class="st2" d="M133.56,176.32c4.19-4.13,9.41-6.2,15.67-6.2c6.26,0,11.48,2.07,15.67,6.2c4.25,4.13,6.38,9.21,6.38,15.23
			c0,5.9-2.12,10.95-6.38,15.14c-4.19,4.13-9.42,6.2-15.67,6.2c-6.26,0-11.48-2.07-15.67-6.2c-4.31-4.13-6.46-9.18-6.46-15.14
			C127.09,185.53,129.25,180.46,133.56,176.32z M149.23,208.46c4.96,0,9.09-1.62,12.4-4.87c3.31-3.31,4.96-7.32,4.96-12.04
			c0-4.84-1.65-8.91-4.96-12.22c-3.31-3.25-7.44-4.87-12.4-4.87c-5.02,0-9.15,1.62-12.4,4.87c-3.36,3.31-5.05,7.38-5.05,12.22
			c0,4.72,1.68,8.74,5.05,12.04C140.08,206.84,144.21,208.46,149.23,208.46z M157.9,196.07l0.27,3.19c0.06,1.3,0.41,2.39,1.06,3.28
			h-4.6c-0.53-0.71-0.83-1.8-0.89-3.28l-0.18-2.3c-0.12-1.24-0.38-2.08-0.8-2.52c-0.41-0.44-1.15-0.66-2.21-0.66h-5.49v8.77h-4.43
			v-22.58h9.83c2.48,0,4.44,0.56,5.89,1.68c1.45,1.12,2.17,2.72,2.17,4.78c0,2.54-1.09,4.28-3.28,5.22
			C156.9,192.35,157.79,193.82,157.9,196.07z M145.07,183.94v6.02h5.49c2.24,0,3.37-1,3.37-3.01c0-2.01-1.21-3.01-3.63-3.01H145.07z
			"/>
		<path class="st2" d="M255.97,197.84v-26.3h9.47v63.04h-9.47v-28.07h-32.49v28.07H214v-63.04h9.47v26.3H255.97z"/>
		<path class="st2" d="M330.87,234.58h-10l-6.2-16.38h-28.33l-6.11,16.38h-9.83l24.61-63.04h10.89L330.87,234.58z M290.67,206.52
			l-1.33,3.45h22.22l-1.33-3.45c-3.13-7.79-6.41-16.41-9.83-25.85C296.34,191.52,293.09,200.14,290.67,206.52z"/>
		<path class="st2" d="M359.56,236c-8.8,0-15.94-2.98-21.43-8.94c-5.55-5.9-8.32-13.9-8.32-23.99c0-10.03,2.75-18.03,8.23-23.99
			c5.49-5.96,12.66-8.94,21.51-8.94c6.96,0,12.96,1.86,17.97,5.58c5.02,3.78,8.23,9.36,9.65,16.73h-9.56
			c-1.18-4.6-3.35-8.07-6.51-10.4c-3.16-2.33-7.01-3.5-11.55-3.5c-6.08,0-10.92,2.2-14.52,6.6c-3.6,4.4-5.4,10.37-5.4,17.93
			c0,7.56,1.8,13.53,5.4,17.93c3.6,4.4,8.44,6.6,14.52,6.6c4.54,0,8.62-1.39,12.22-4.16c3.48-2.77,5.58-6.82,6.29-12.13h9.47
			c-0.77,7.85-3.81,13.93-9.12,18.24C373.16,233.84,366.88,236,359.56,236z"/>
		<path class="st2" d="M440.48,171.54v8.5h-35.5v17.8h32.14v8.32h-32.14v19.92h35.24v8.5H395.5v-63.04H440.48z"/>
		<path class="st2" d="M487.23,204.21l12.48-32.67h13.19v63.04h-9.12v-19.74c0-14.22,0.12-24.88,0.35-31.96
			c-1.24,3.78-3.01,8.65-5.31,14.61l-14.25,37.1h-7.97l-14.43-37.1c-1.95-5.19-3.69-9.97-5.22-14.34c0.24,7.03,0.35,17.59,0.35,31.7
			v19.74h-9.12v-63.04h13.1l12.93,33.56c2.66,6.97,4.81,12.9,6.46,17.8C482.62,217.05,484.81,210.82,487.23,204.21z"/>
		<path class="st2" d="M552.04,236c-9.33,0-16.76-3.04-22.31-9.12c-5.67-6.02-8.5-13.96-8.5-23.82c0-9.8,2.83-17.77,8.5-23.91
			c5.55-6.02,12.99-9.03,22.31-9.03c9.21,0,16.64,3.01,22.31,9.03c5.61,6.14,8.41,14.11,8.41,23.91c0,9.8-2.8,17.74-8.41,23.82
			C568.68,232.96,561.25,236,552.04,236z M552.04,227.5c6.37,0,11.45-2.21,15.23-6.64c3.78-4.31,5.67-10.24,5.67-17.8
			c0-7.55-1.89-13.52-5.67-17.88c-3.84-4.37-8.91-6.55-15.23-6.55c-6.32,0-11.39,2.18-15.23,6.55c-3.84,4.49-5.75,10.45-5.75,17.88
			c0,7.5,1.92,13.43,5.75,17.8C540.59,225.29,545.66,227.5,552.04,227.5z"/>
		<path class="st2" d="M613.75,236c-8.32,0-14.8-1.89-19.43-5.67c-4.63-3.78-6.98-9.3-7.04-16.56h9.47
			c0.18,9.44,5.9,14.17,17.18,14.17c4.66,0,8.25-0.9,10.76-2.7c2.51-1.8,3.76-4.41,3.76-7.84c0-2.77-1.03-4.91-3.1-6.42
			c-2.07-1.51-5.79-2.85-11.16-4.03l-5.4-1.15c-6.49-1.3-11.39-3.42-14.7-6.37c-3.31-2.95-4.96-7.02-4.96-12.22
			c0-5.19,2.01-9.34,6.02-12.44c4.01-3.1,9.44-4.65,16.29-4.65c8.26,0,14.48,1.77,18.64,5.31c4.16,3.54,6.3,8.41,6.42,14.61h-9.39
			c-0.3-4.07-1.64-7.07-4.03-8.99c-2.39-1.92-6.24-2.88-11.55-2.88c-4.13,0-7.29,0.77-9.47,2.3c-2.18,1.54-3.28,3.72-3.28,6.55
			c0,2.89,0.97,5.08,2.92,6.55c1.95,1.59,5.55,2.95,10.8,4.07l5.49,1.15c7.2,1.54,12.38,3.75,15.54,6.64
			c3.16,2.89,4.74,6.79,4.74,11.69c0,5.84-2.17,10.45-6.51,13.81C627.43,234.32,621.42,236,613.75,236z"/>
		<path class="st2" d="M722.57,203.06c0,10.04-2.86,18.03-8.59,23.99l7.88,8.41l-5.31,5.14l-8.32-8.85
			c-4.78,2.83-10.24,4.25-16.38,4.25c-9.33,0-16.76-3.04-22.31-9.12c-5.67-6.02-8.5-13.96-8.5-23.82c0-9.8,2.83-17.77,8.5-23.91
			c5.55-6.02,12.99-9.03,22.31-9.03c9.21,0,16.64,3.01,22.31,9.03C719.76,185.3,722.57,193.26,722.57,203.06z M691.84,227.5
			c3.78,0,7.14-0.83,10.09-2.48l-7.61-8.15l5.22-5.14l7.97,8.5c3.48-4.37,5.22-10.09,5.22-17.18c0-7.55-1.89-13.52-5.67-17.88
			c-3.84-4.37-8.91-6.55-15.23-6.55c-6.32,0-11.39,2.18-15.23,6.55c-3.84,4.49-5.75,10.45-5.75,17.88c0,7.5,1.92,13.43,5.75,17.8
			C680.39,225.29,685.47,227.5,691.84,227.5z"/>
		<path class="st2" d="M774.27,229.4c-4.49,4.34-10.74,6.51-18.77,6.51c-8.03,0-14.29-2.17-18.77-6.51
			c-4.49-4.34-6.73-10.46-6.73-18.37v-39.49h9.47v39.58c0,5.43,1.37,9.53,4.12,12.31c2.74,2.77,6.71,4.16,11.91,4.16
			c5.19,0,9.16-1.39,11.91-4.16c2.75-2.77,4.12-6.88,4.12-12.31v-39.58H781v39.49C781,218.94,778.76,225.06,774.27,229.4z"/>
		<path class="st2" d="M836.07,171.54v8.5h-35.5v17.8h32.14v8.32h-32.14v19.92h35.24v8.5h-44.71v-63.04H836.07z"/>
		<path class="st2" d="M237.46,313.11c-8.32,0-14.8-1.89-19.43-5.67c-4.63-3.78-6.98-9.3-7.04-16.56h9.47
			c0.18,9.44,5.9,14.17,17.18,14.17c4.66,0,8.25-0.9,10.76-2.7c2.51-1.8,3.76-4.41,3.76-7.84c0-2.77-1.03-4.91-3.1-6.42
			c-2.07-1.51-5.79-2.85-11.16-4.03l-5.4-1.15c-6.49-1.3-11.39-3.42-14.7-6.37c-3.31-2.95-4.96-7.02-4.96-12.22
			c0-5.19,2.01-9.34,6.02-12.44c4.01-3.1,9.44-4.65,16.29-4.65c8.26,0,14.48,1.77,18.64,5.31c4.16,3.54,6.3,8.41,6.42,14.61h-9.38
			c-0.3-4.07-1.64-7.07-4.03-8.99c-2.39-1.92-6.24-2.88-11.55-2.88c-4.13,0-7.29,0.77-9.47,2.3c-2.18,1.54-3.28,3.72-3.28,6.55
			c0,2.89,0.97,5.08,2.92,6.55c1.95,1.59,5.55,2.95,10.8,4.07l5.49,1.15c7.2,1.54,12.38,3.75,15.54,6.64
			c3.16,2.89,4.74,6.79,4.74,11.69c0,5.84-2.17,10.45-6.51,13.81C251.14,311.43,245.14,313.11,237.46,313.11z"/>
		<path class="st2" d="M312.9,306.52c-4.49,4.34-10.74,6.51-18.77,6.51c-8.03,0-14.29-2.17-18.77-6.51
			c-4.49-4.34-6.73-10.46-6.73-18.37v-39.49h9.47v39.58c0,5.43,1.37,9.53,4.12,12.31c2.75,2.77,6.71,4.16,11.91,4.16
			c5.19,0,9.16-1.39,11.91-4.16c2.74-2.77,4.12-6.88,4.12-12.31v-39.58h9.47v39.49C319.63,296.06,317.38,302.18,312.9,306.52z"/>
		<path class="st2" d="M356.81,313.11c-8.8,0-15.94-2.98-21.43-8.94c-5.55-5.9-8.32-13.9-8.32-23.99c0-10.03,2.75-18.03,8.23-23.99
			c5.49-5.96,12.66-8.94,21.51-8.94c6.96,0,12.96,1.86,17.97,5.58c5.02,3.78,8.23,9.36,9.65,16.73h-9.56
			c-1.18-4.6-3.35-8.07-6.51-10.4c-3.16-2.33-7.01-3.5-11.55-3.5c-6.08,0-10.92,2.2-14.52,6.6c-3.6,4.4-5.4,10.37-5.4,17.93
			c0,7.56,1.8,13.53,5.4,17.93c3.6,4.4,8.44,6.6,14.52,6.6c4.54,0,8.62-1.39,12.22-4.16c3.48-2.77,5.58-6.82,6.29-12.13h9.47
			c-0.77,7.85-3.81,13.93-9.12,18.24C370.42,310.96,364.13,313.11,356.81,313.11z"/>
		<path class="st2" d="M437.74,248.66v8.5h-35.5v17.8h32.14v8.32h-32.14v19.92h35.24v8.5h-44.71v-63.04H437.74z"/>
		<path class="st2" d="M445.44,248.66h22.49c9.74,0,17.41,2.8,23.02,8.41c5.49,5.61,8.23,13.31,8.23,23.11
			c0,9.8-2.75,17.5-8.23,23.11c-5.61,5.61-13.28,8.41-23.02,8.41h-22.49V248.66z M454.91,303.37h12.93c6.91,0,12.2-2.01,15.89-6.02
			c3.69-4.01,5.53-9.74,5.53-17.18c0-7.44-1.85-13.16-5.53-17.18c-3.69-4.01-8.99-6.02-15.89-6.02h-12.93V303.37z"/>
		<path class="st2" d="M558.5,311.7h-10l-6.2-16.38h-28.33l-6.11,16.38h-9.83l24.61-63.04h10.89L558.5,311.7z M518.31,283.63
			l-1.33,3.45h22.22l-1.33-3.45c-3.13-7.79-6.41-16.41-9.83-25.85C523.97,268.64,520.73,277.25,518.31,283.63z"/>
		<path class="st2" d="M139.05,325.77v54.54h30.9v8.5h-40.37v-63.04H139.05z"/>
		<path class="st2" d="M199.08,390.23c-9.33,0-16.76-3.04-22.31-9.12c-5.67-6.02-8.5-13.96-8.5-23.82c0-9.8,2.83-17.77,8.5-23.91
			c5.55-6.02,12.98-9.03,22.31-9.03c9.21,0,16.65,3.01,22.31,9.03c5.61,6.14,8.41,14.11,8.41,23.91c0,9.8-2.8,17.74-8.41,23.82
			C215.72,387.19,208.28,390.23,199.08,390.23z M199.08,381.73c6.38,0,11.45-2.21,15.23-6.64c3.78-4.31,5.67-10.24,5.67-17.8
			c0-7.55-1.89-13.52-5.67-17.88c-3.84-4.37-8.91-6.55-15.23-6.55c-6.32,0-11.39,2.18-15.23,6.55c-3.84,4.49-5.75,10.45-5.75,17.88
			c0,7.5,1.92,13.43,5.75,17.8C187.62,379.52,192.7,381.73,199.08,381.73z"/>
		<path class="st2" d="M265.48,388.81h-9.47v-63.04h9.47V388.81z"/>
		<path class="st2" d="M318.78,344.9v-19.12h9.12v63.04h-10.89l-19.39-30.55c-5.67-8.85-9.77-15.61-12.31-20.28
			c0.24,7.02,0.35,17.59,0.35,31.7v19.12h-9.21v-63.04h10.89l19.48,30.55c5.25,8.32,9.35,15.11,12.31,20.36
			C318.9,369.6,318.78,359,318.78,344.9z"/>
		<path class="st2" d="M383.94,325.77v8.5h-35.5v17.8h32.14v8.32h-32.14v19.92h35.24v8.5h-44.71v-63.04H383.94z"/>
		<path class="st2" d="M414.84,390.23c-8.32,0-14.8-1.89-19.43-5.67c-4.63-3.78-6.98-9.3-7.04-16.56h9.47
			c0.18,9.44,5.9,14.17,17.18,14.17c4.66,0,8.25-0.9,10.76-2.7c2.51-1.8,3.76-4.41,3.76-7.84c0-2.77-1.03-4.91-3.1-6.42
			c-2.07-1.51-5.79-2.85-11.16-4.03l-5.4-1.15c-6.49-1.3-11.39-3.42-14.7-6.37c-3.31-2.95-4.96-7.02-4.96-12.22
			c0-5.19,2.01-9.34,6.02-12.44c4.01-3.1,9.44-4.65,16.29-4.65c8.26,0,14.48,1.77,18.64,5.31c4.16,3.54,6.3,8.41,6.42,14.61h-9.39
			c-0.3-4.07-1.64-7.07-4.03-8.99c-2.39-1.92-6.24-2.88-11.55-2.88c-4.13,0-7.29,0.77-9.47,2.3c-2.18,1.54-3.28,3.72-3.28,6.55
			c0,2.89,0.97,5.08,2.92,6.55c1.95,1.59,5.55,2.95,10.8,4.07l5.49,1.15c7.2,1.54,12.38,3.75,15.54,6.64
			c3.16,2.89,4.74,6.79,4.74,11.69c0,5.84-2.17,10.45-6.51,13.81C428.52,388.55,422.52,390.23,414.84,390.23z"/>
		<path class="st2" d="M446.89,325.77h26.83c6.85,0,12.16,1.79,15.94,5.36c3.78,3.57,5.67,8.43,5.67,14.56
			c0,6.08-1.89,10.91-5.67,14.48c-3.78,3.57-9.09,5.36-15.94,5.36h-17.35v23.29h-9.47V325.77z M456.37,357.2h17.18
			c3.95,0,6.96-0.99,9.03-2.97c2.07-1.98,3.1-4.83,3.1-8.54s-1.03-6.58-3.1-8.59c-2.07-2.01-5.08-3.01-9.03-3.01h-17.18V357.2z"/>
		<path class="st2" d="M548.18,325.77v8.5h-35.5v17.8h32.14v8.32h-32.14v19.92h35.24v8.5h-44.71v-63.04H548.18z"/>
		<path class="st2" d="M603.52,371.28l0.62,9.83c0.29,3.25,1,5.81,2.12,7.7h-9.74c-1.18-1.71-1.8-4.4-1.86-8.06l-0.27-6.73
			c-0.18-4.07-1.09-6.95-2.75-8.63c-1.65-1.68-4.31-2.52-7.97-2.52h-18.33v25.94h-9.47v-63.04h27.54c6.73,0,12.03,1.55,15.89,4.65
			c3.87,3.1,5.8,7.36,5.8,12.79c0,3.84-0.93,7.07-2.79,9.69c-1.86,2.63-4.47,4.47-7.84,5.53c3.07,0.89,5.31,2.38,6.73,4.47
			C602.63,365.01,603.4,367.8,603.52,371.28z M565.36,354.99h18.24c3.66,0,6.54-0.94,8.63-2.83c2.09-1.89,3.14-4.57,3.14-8.06
			c0-3.36-1.08-5.9-3.23-7.61c-2.16-1.71-5.24-2.57-9.25-2.57h-17.53V354.99z"/>
		<path class="st2" d="M667.89,388.81h-10l-6.2-16.38h-28.33l-6.11,16.38h-9.83l24.61-63.04h10.89L667.89,388.81z M627.69,360.74
			l-1.33,3.45h22.22l-1.33-3.45c-3.13-7.79-6.41-16.41-9.83-25.85C633.36,345.75,630.11,354.37,627.69,360.74z"/>
		<path class="st2" d="M672.93,325.77h22.49c9.74,0,17.41,2.8,23.02,8.41c5.49,5.61,8.23,13.31,8.23,23.11
			c0,9.8-2.75,17.5-8.23,23.11c-5.61,5.61-13.28,8.41-23.02,8.41h-22.49V325.77z M682.41,380.49h12.93c6.91,0,12.2-2.01,15.89-6.02
			c3.69-4.01,5.53-9.74,5.53-17.18c0-7.44-1.85-13.16-5.53-17.18c-3.69-4.01-8.99-6.02-15.89-6.02h-12.93V380.49z"/>
		<path class="st2" d="M763.15,390.23c-9.33,0-16.76-3.04-22.31-9.12c-5.67-6.02-8.5-13.96-8.5-23.82c0-9.8,2.83-17.77,8.5-23.91
			c5.55-6.02,12.99-9.03,22.31-9.03c9.21,0,16.64,3.01,22.31,9.03c5.61,6.14,8.41,14.11,8.41,23.91c0,9.8-2.8,17.74-8.41,23.82
			C779.8,387.19,772.36,390.23,763.15,390.23z M763.15,381.73c6.37,0,11.45-2.21,15.23-6.64c3.78-4.31,5.67-10.24,5.67-17.8
			c0-7.55-1.89-13.52-5.67-17.88c-3.84-4.37-8.91-6.55-15.23-6.55c-6.32,0-11.39,2.18-15.23,6.55c-3.84,4.49-5.75,10.45-5.75,17.88
			c0,7.5,1.92,13.43,5.75,17.8C751.7,379.52,756.78,381.73,763.15,381.73z"/>
	</g>
	<g>
		<path class="st2" d="M132.81,109.73h-2.99c-2.82-4.29-4.24-9.48-4.24-15.57c0-6.11,1.41-11.32,4.24-15.61h2.99
			c-1.36,2.4-2.35,4.82-2.96,7.26c-0.62,2.51-0.92,5.29-0.92,8.34c0,2.99,0.31,5.74,0.92,8.25
			C130.44,104.84,131.43,107.28,132.81,109.73z"/>
		<path class="st2" d="M149.24,92.56l4.49-11.75h4.75v22.68h-3.28v-7.1c0-5.12,0.04-8.95,0.13-11.5c-0.45,1.36-1.08,3.11-1.91,5.25
			l-5.13,13.34h-2.87l-5.19-13.34c-0.7-1.87-1.33-3.59-1.88-5.16c0.08,2.53,0.13,6.33,0.13,11.4v7.1h-3.28V80.81h4.71l4.65,12.07
			c0.96,2.51,1.73,4.64,2.32,6.4C147.59,97.18,148.37,94.94,149.24,92.56z"/>
		<path class="st2" d="M180.52,80.81l-7.58,10.99l8.03,11.69h-3.95l-2.96-4.36c-1.17-1.7-2.22-3.25-3.15-4.65
			c-1.44,2.12-2.5,3.67-3.15,4.65l-3.03,4.36h-3.82l8.09-11.59l-7.64-11.08h3.95l2.74,4.01c0.25,0.42,0.71,1.1,1.37,2.04
			c0.25,0.4,0.57,0.89,0.94,1.45c0.37,0.56,0.58,0.88,0.62,0.94c0.21-0.34,1.21-1.83,2.99-4.46l2.77-3.98H180.52z"/>
		<path class="st2" d="M184.94,109.73h-2.96c1.42-2.51,2.42-4.95,2.99-7.33c0.59-2.4,0.89-5.15,0.89-8.25c0-3.16-0.3-5.94-0.89-8.34
			c-0.59-2.38-1.59-4.8-2.99-7.26h2.96c2.84,4.31,4.27,9.51,4.27,15.61C189.21,100.16,187.79,105.35,184.94,109.73z"/>
	</g>
	<g>
		<g>
			<path class="st2" d="M156.74,485.49h-32.65v-3.19h32.65V485.49z"/>
		</g>
	</g>
</g>
</svg>
