<?xml version="1.0" encoding="utf-8"?>
<!-- Generator: Adobe Illustrator 25.4.1, SVG Export Plug-In . SVG Version: 6.00 Build 0)  -->
<svg version="1.1" id="Capa_1" xmlns="http://www.w3.org/2000/svg" xmlns:xlink="http://www.w3.org/1999/xlink" x="0px" y="0px"
	 viewBox="0 0 712 406.9" style="enable-background:new 0 0 712 406.9;" xml:space="preserve">
<style type="text/css">
	.st0{fill:#000;}
</style>
<g>
	<g>
		<path class="st0" d="M9.5,97.8c4.2-4.1,9.4-6.2,15.7-6.2s11.5,2.1,15.7,6.2c4.2,4.1,6.4,9.2,6.4,15.2c0,5.9-2.1,10.9-6.4,15.1
			c-4.2,4.1-9.4,6.2-15.7,6.2c-6.3,0-11.5-2.1-15.7-6.2C5.2,124,3,119,3,113C3,107,5.2,101.9,9.5,97.8z M25.1,129.9
			c5,0,9.1-1.6,12.4-4.9c3.3-3.3,5-7.3,5-12c0-4.8-1.6-8.9-5-12.2c-3.3-3.2-7.4-4.9-12.4-4.9c-5,0-9.1,1.6-12.4,4.9
			c-3.4,3.3-5.1,7.4-5.1,12.2c0,4.7,1.7,8.7,5.1,12C16,128.3,20.1,129.9,25.1,129.9z M33.8,117.5l0.3,3.2c0.1,1.3,0.4,2.4,1.1,3.3
			h-4.6c-0.5-0.7-0.8-1.8-0.9-3.3l-0.2-2.3c-0.1-1.2-0.4-2.1-0.8-2.5c-0.4-0.4-1.1-0.7-2.2-0.7H21v8.8h-4.4v-22.6h9.8
			c2.5,0,4.4,0.6,5.9,1.7s2.2,2.7,2.2,4.8c0,2.5-1.1,4.3-3.3,5.2C32.8,113.8,33.7,115.3,33.8,117.5z M21,105.4v6h5.5
			c2.2,0,3.4-1,3.4-3s-1.2-3-3.6-3L21,105.4L21,105.4z"/>
		<path class="st0" d="M131.9,119.3V93h9.5v63h-9.5V128H99.4V156h-9.5V93h9.5v26.3L131.9,119.3L131.9,119.3z"/>
		<path class="st0" d="M206.8,156h-10l-6.2-16.4h-28.3l-6.1,16.4h-9.8l24.6-63h10.9L206.8,156z M166.6,128l-1.3,3.5h22.2l-1.3-3.5
			c-3.1-7.8-6.4-16.4-9.8-25.9C172.2,113,169,121.6,166.6,128z"/>
		<path class="st0" d="M235.5,157.5c-8.8,0-15.9-3-21.4-8.9c-5.5-5.9-8.3-13.9-8.3-24c0-10,2.8-18,8.2-24c5.5-6,12.7-8.9,21.5-8.9
			c7,0,13,1.9,18,5.6c5,3.8,8.2,9.4,9.6,16.7h-9.6c-1.2-4.6-3.4-8.1-6.5-10.4c-3.2-2.3-7-3.5-11.5-3.5c-6.1,0-10.9,2.2-14.5,6.6
			c-3.6,4.4-5.4,10.4-5.4,17.9c0,7.6,1.8,13.5,5.4,17.9s8.4,6.6,14.5,6.6c4.5,0,8.6-1.4,12.2-4.2c3.5-2.8,5.6-6.8,6.3-12.1h9.5
			c-0.8,7.9-3.8,13.9-9.1,18.2C249.1,155.3,242.8,157.5,235.5,157.5z"/>
		<path class="st0" d="M316.4,93v8.5h-35.5v17.8H313v8.3h-32.1v19.9h35.2v8.5h-44.7V93L316.4,93L316.4,93z"/>
		<path class="st0" d="M363.1,125.7L375.6,93h13.2v63h-9.1v-19.7c0-14.2,0.1-24.9,0.4-32c-1.2,3.8-3,8.6-5.3,14.6L360.5,156h-8
			l-14.4-37.1c-2-5.2-3.7-10-5.2-14.3c0.2,7,0.4,17.6,0.4,31.7V156h-9.1V93h13.1l12.9,33.6c2.7,7,4.8,12.9,6.5,17.8
			C358.5,138.5,360.7,132.3,363.1,125.7z"/>
		<path class="st0" d="M427.9,157.5c-9.3,0-16.8-3-22.3-9.1c-5.7-6-8.5-14-8.5-23.8c0-9.8,2.8-17.8,8.5-23.9c5.5-6,13-9,22.3-9
			c9.2,0,16.6,3,22.3,9c5.6,6.1,8.4,14.1,8.4,23.9s-2.8,17.7-8.4,23.8C444.6,154.4,437.2,157.5,427.9,157.5z M427.9,149
			c6.4,0,11.5-2.2,15.2-6.6c3.8-4.3,5.7-10.2,5.7-17.8c0-7.6-1.9-13.5-5.7-17.9c-3.8-4.4-8.9-6.6-15.2-6.6s-11.4,2.2-15.2,6.6
			c-3.8,4.5-5.8,10.4-5.8,17.9c0,7.5,1.9,13.4,5.8,17.8C416.5,146.7,421.6,149,427.9,149z"/>
		<path class="st0" d="M489.7,157.5c-8.3,0-14.8-1.9-19.4-5.7s-7-9.3-7-16.6h9.5c0.2,9.4,5.9,14.2,17.2,14.2c4.7,0,8.2-0.9,10.8-2.7
			c2.5-1.8,3.8-4.4,3.8-7.8c0-2.8-1-4.9-3.1-6.4c-2.1-1.5-5.8-2.9-11.2-4l-5.4-1.2c-6.5-1.3-11.4-3.4-14.7-6.4s-5-7-5-12.2
			c0-5.2,2-9.3,6-12.4s9.4-4.6,16.3-4.6c8.3,0,14.5,1.8,18.6,5.3c4.2,3.5,6.3,8.4,6.4,14.6H503c-0.3-4.1-1.6-7.1-4-9
			s-6.2-2.9-11.5-2.9c-4.1,0-7.3,0.8-9.5,2.3c-2.2,1.5-3.3,3.7-3.3,6.6c0,2.9,1,5.1,2.9,6.6c2,1.6,5.5,2.9,10.8,4.1l5.5,1.1
			c7.2,1.5,12.4,3.8,15.5,6.6c3.2,2.9,4.7,6.8,4.7,11.7c0,5.8-2.2,10.4-6.5,13.8C503.3,155.8,497.3,157.5,489.7,157.5z"/>
		<path class="st0" d="M598.5,124.5c0,10-2.9,18-8.6,24l7.9,8.4l-5.3,5.1l-8.3-8.9c-4.8,2.8-10.2,4.2-16.4,4.2
			c-9.3,0-16.8-3-22.3-9.1c-5.7-6-8.5-14-8.5-23.8c0-9.8,2.8-17.8,8.5-23.9c5.5-6,13-9,22.3-9c9.2,0,16.7,3,22.3,9
			C595.7,106.8,598.5,114.7,598.5,124.5z M567.8,149c3.8,0,7.1-0.8,10.1-2.5l-7.6-8.1l5.2-5.1l8,8.5c3.5-4.4,5.2-10.1,5.2-17.2
			c0-7.6-1.9-13.5-5.7-17.9c-3.8-4.4-8.9-6.6-15.2-6.6s-11.4,2.2-15.2,6.6c-3.8,4.5-5.8,10.4-5.8,17.9c0,7.5,1.9,13.4,5.8,17.8
			C556.3,146.7,561.4,149,567.8,149z"/>
		<path class="st0" d="M650.2,150.9c-4.5,4.3-10.7,6.5-18.8,6.5s-14.3-2.2-18.8-6.5c-4.5-4.3-6.7-10.5-6.7-18.4V93h9.5v39.6
			c0,5.4,1.4,9.5,4.1,12.3c2.8,2.8,6.7,4.2,11.9,4.2c5.2,0,9.2-1.4,11.9-4.2c2.8-2.8,4.1-6.9,4.1-12.3V93h9.5v39.5
			C656.9,140.4,654.7,146.5,650.2,150.9z"/>
		<path class="st0" d="M712,93v8.5h-35.5v17.8h32.1v8.3h-32.1v19.9h35.2v8.5H667V93L712,93L712,93z"/>
		<path class="st0" d="M113.4,234.6c-8.3,0-14.8-1.9-19.4-5.7s-7-9.3-7-16.6h9.5c0.2,9.4,5.9,14.2,17.2,14.2c4.7,0,8.2-0.9,10.8-2.7
			c2.5-1.8,3.8-4.4,3.8-7.8c0-2.8-1-4.9-3.1-6.4s-5.8-2.9-11.2-4l-5.4-1.1c-6.5-1.3-11.4-3.4-14.7-6.4c-3.3-3-5-7-5-12.2
			c0-5.2,2-9.3,6-12.4c4-3.1,9.4-4.6,16.3-4.6c8.3,0,14.5,1.8,18.6,5.3c4.2,3.5,6.3,8.4,6.4,14.6h-9.4c-0.3-4.1-1.6-7.1-4-9
			c-2.4-1.9-6.2-2.9-11.6-2.9c-4.1,0-7.3,0.8-9.5,2.3c-2.2,1.5-3.3,3.7-3.3,6.5c0,2.9,1,5.1,2.9,6.5c1.9,1.6,5.6,3,10.8,4.1l5.5,1.1
			c7.2,1.5,12.4,3.8,15.5,6.6s4.7,6.8,4.7,11.7c0,5.8-2.2,10.5-6.5,13.8C127,232.9,121,234.6,113.4,234.6z"/>
		<path class="st0" d="M188.8,228c-4.5,4.3-10.7,6.5-18.8,6.5s-14.3-2.2-18.8-6.5c-4.5-4.3-6.7-10.5-6.7-18.4v-39.5h9.5v39.6
			c0,5.4,1.4,9.5,4.1,12.3c2.7,2.8,6.7,4.2,11.9,4.2c5.2,0,9.2-1.4,11.9-4.2s4.1-6.9,4.1-12.3v-39.6h9.5v39.5
			C195.5,217.5,193.3,223.6,188.8,228z"/>
		<path class="st0" d="M232.7,234.6c-8.8,0-15.9-3-21.4-8.9c-5.5-5.9-8.3-13.9-8.3-24c0-10,2.8-18,8.2-24c5.5-6,12.7-8.9,21.5-8.9
			c7,0,13,1.9,18,5.6c5,3.8,8.2,9.4,9.6,16.7h-9.6c-1.2-4.6-3.4-8.1-6.5-10.4s-7-3.5-11.5-3.5c-6.1,0-10.9,2.2-14.5,6.6
			c-3.6,4.4-5.4,10.4-5.4,17.9s1.8,13.5,5.4,17.9s8.4,6.6,14.5,6.6c4.5,0,8.6-1.4,12.2-4.2c3.5-2.8,5.6-6.8,6.3-12.1h9.5
			c-0.8,7.9-3.8,13.9-9.1,18.2C246.3,232.4,240,234.6,232.7,234.6z"/>
		<path class="st0" d="M313.6,170.1v8.5h-35.5v17.8h32.1v8.3h-32.1v19.9h35.2v8.5h-44.7v-63H313.6z"/>
		<path class="st0" d="M321.4,170.1h22.5c9.7,0,17.4,2.8,23,8.4c5.5,5.6,8.2,13.3,8.2,23.1s-2.8,17.5-8.2,23.1
			c-5.6,5.6-13.3,8.4-23,8.4h-22.5V170.1z M330.8,224.8h12.9c6.9,0,12.2-2,15.9-6c3.7-4,5.5-9.7,5.5-17.2s-1.9-13.2-5.5-17.2
			c-3.7-4-9-6-15.9-6h-12.9V224.8z"/>
		<path class="st0" d="M434.4,233.2h-10l-6.2-16.4h-28.3l-6.1,16.4h-9.8l24.6-63h10.9L434.4,233.2z M394.2,205.1l-1.3,3.5h22.2
			l-1.3-3.5c-3.1-7.8-6.4-16.4-9.8-25.9C399.9,190.1,396.6,198.7,394.2,205.1z"/>
		<path class="st0" d="M15,247.2v54.5h30.9v8.5H5.5v-63H15z"/>
		<path class="st0" d="M75,311.7c-9.3,0-16.8-3-22.3-9.1c-5.7-6-8.5-14-8.5-23.8c0-9.8,2.8-17.8,8.5-23.9c5.6-6,13-9,22.3-9
			c9.2,0,16.6,3,22.3,9c5.6,6.1,8.4,14.1,8.4,23.9c0,9.8-2.8,17.7-8.4,23.8C91.6,308.6,84.2,311.7,75,311.7z M75,303.2
			c6.4,0,11.4-2.2,15.2-6.6c3.8-4.3,5.7-10.2,5.7-17.8c0-7.5-1.9-13.5-5.7-17.9c-3.8-4.4-8.9-6.5-15.2-6.5c-6.3,0-11.4,2.2-15.2,6.5
			c-3.8,4.5-5.8,10.5-5.8,17.9c0,7.5,1.9,13.4,5.8,17.8C63.5,301,68.6,303.2,75,303.2z"/>
		<path class="st0" d="M141.4,310.3h-9.5v-63h9.5V310.3z"/>
		<path class="st0" d="M194.7,266.4v-19.1h9.1v63h-10.9l-19.4-30.5c-5.7-8.9-9.8-15.6-12.3-20.3c0.2,7,0.4,17.6,0.4,31.7v19.1h-9.2
			v-63h10.9l19.5,30.5c5.2,8.3,9.4,15.1,12.3,20.4C194.8,291.1,194.7,280.5,194.7,266.4z"/>
		<path class="st0" d="M259.9,247.2v8.5h-35.5v17.8h32.1v8.3h-32.1v19.9h35.2v8.5h-44.7v-63H259.9z"/>
		<path class="st0" d="M290.8,311.7c-8.3,0-14.8-1.9-19.4-5.7s-7-9.3-7-16.6h9.5c0.2,9.4,5.9,14.2,17.2,14.2c4.7,0,8.2-0.9,10.8-2.7
			c2.5-1.8,3.8-4.4,3.8-7.8c0-2.8-1-4.9-3.1-6.4s-5.8-2.9-11.2-4l-5.4-1.1c-6.5-1.3-11.4-3.4-14.7-6.4c-3.3-3-5-7-5-12.2
			c0-5.2,2-9.3,6-12.4c4-3.1,9.4-4.6,16.3-4.6c8.3,0,14.5,1.8,18.6,5.3s6.3,8.4,6.4,14.6h-9.4c-0.3-4.1-1.6-7.1-4-9
			c-2.4-1.9-6.2-2.9-11.5-2.9c-4.1,0-7.3,0.8-9.5,2.3c-2.2,1.5-3.3,3.7-3.3,6.5c0,2.9,1,5.1,2.9,6.5c2,1.6,5.5,3,10.8,4.1l5.5,1.1
			c7.2,1.5,12.4,3.8,15.5,6.6s4.7,6.8,4.7,11.7c0,5.8-2.2,10.5-6.5,13.8C304.4,310,298.4,311.7,290.8,311.7z"/>
		<path class="st0" d="M322.8,247.2h26.8c6.9,0,12.2,1.8,15.9,5.4c3.8,3.6,5.7,8.4,5.7,14.6c0,6.1-1.9,10.9-5.7,14.5
			s-9.1,5.4-15.9,5.4h-17.4v23.3h-9.5L322.8,247.2L322.8,247.2z M332.3,278.7h17.2c4,0,7-1,9-3s3.1-4.8,3.1-8.5s-1-6.6-3.1-8.6
			s-5.1-3-9-3h-17.2V278.7z"/>
		<path class="st0" d="M424.1,247.2v8.5h-35.5v17.8h32.1v8.3h-32.1v19.9h35.2v8.5h-44.7v-63H424.1z"/>
		<path class="st0" d="M479.4,292.7l0.6,9.8c0.3,3.2,1,5.8,2.1,7.7h-9.7c-1.2-1.7-1.8-4.4-1.9-8.1l-0.3-6.7c-0.2-4.1-1.1-7-2.8-8.6
			c-1.7-1.7-4.3-2.5-8-2.5h-18.3v25.9h-9.5v-63h27.5c6.7,0,12,1.5,15.9,4.6c3.9,3.1,5.8,7.4,5.8,12.8c0,3.8-0.9,7.1-2.8,9.7
			c-1.9,2.6-4.5,4.5-7.8,5.5c3.1,0.9,5.3,2.4,6.7,4.5C478.5,286.5,479.3,289.2,479.4,292.7z M441.3,276.4h18.2
			c3.7,0,6.5-0.9,8.6-2.8c2.1-1.9,3.1-4.6,3.1-8.1c0-3.4-1.1-5.9-3.2-7.6c-2.2-1.7-5.2-2.6-9.2-2.6h-17.5V276.4z"/>
		<path class="st0" d="M543.8,310.3h-10l-6.2-16.4h-28.3l-6.1,16.4h-9.8l24.6-63h10.9L543.8,310.3z M503.6,282.2l-1.3,3.5h22.2
			l-1.3-3.5c-3.1-7.8-6.4-16.4-9.8-25.9C509.3,267.2,506,275.8,503.6,282.2z"/>
		<path class="st0" d="M548.8,247.2h22.5c9.7,0,17.4,2.8,23,8.4c5.5,5.6,8.2,13.3,8.2,23.1s-2.8,17.5-8.2,23.1
			c-5.6,5.6-13.3,8.4-23,8.4h-22.5V247.2z M558.3,301.9h12.9c6.9,0,12.2-2,15.9-6c3.7-4,5.5-9.7,5.5-17.2s-1.8-13.2-5.5-17.2
			c-3.7-4-9-6-15.9-6h-12.9V301.9z"/>
		<path class="st0" d="M639.1,311.7c-9.3,0-16.8-3-22.3-9.1c-5.7-6-8.5-14-8.5-23.8c0-9.8,2.8-17.8,8.5-23.9c5.5-6,13-9,22.3-9
			c9.2,0,16.6,3,22.3,9c5.6,6.1,8.4,14.1,8.4,23.9c0,9.8-2.8,17.7-8.4,23.8C655.7,308.6,648.3,311.7,639.1,311.7z M639.1,303.2
			c6.4,0,11.5-2.2,15.2-6.6c3.8-4.3,5.7-10.2,5.7-17.8c0-7.5-1.9-13.5-5.7-17.9c-3.8-4.4-8.9-6.5-15.2-6.5s-11.4,2.2-15.2,6.5
			c-3.8,4.5-5.8,10.5-5.8,17.9c0,7.5,1.9,13.4,5.8,17.8C627.6,301,632.7,303.2,639.1,303.2z"/>
	</g>
	<g>
		<path class="st0" d="M8.7,31.2h-3c-2.8-4.3-4.2-9.5-4.2-15.6C1.5,9.5,2.9,4.3,5.7,0h3c-1.4,2.4-2.4,4.8-3,7.3
			c-0.6,2.5-0.9,5.3-0.9,8.3c0,3,0.3,5.7,0.9,8.2C6.3,26.3,7.3,28.7,8.7,31.2z"/>
		<path class="st0" d="M25.2,14l4.5-11.8h4.8v22.7h-3.3v-7.1c0-5.1,0-8.9,0.1-11.5c-0.4,1.4-1.1,3.1-1.9,5.2l-5.1,13.3h-2.9
			l-5.2-13.3c-0.7-1.9-1.3-3.6-1.9-5.2c0.1,2.5,0.1,6.3,0.1,11.4v7.1h-3.3V2.3h4.7l4.6,12.1c1,2.5,1.7,4.6,2.3,6.4
			C23.5,18.6,24.3,16.4,25.2,14z"/>
		<path class="st0" d="M56.4,2.3l-7.6,11l8,11.7h-3.9l-3-4.4c-1.2-1.7-2.2-3.2-3.1-4.7c-1.4,2.1-2.5,3.7-3.1,4.7l-3,4.4h-3.8
			l8.1-11.6L37.3,2.3h3.9l2.7,4c0.2,0.4,0.7,1.1,1.4,2c0.2,0.4,0.6,0.9,0.9,1.4s0.6,0.9,0.6,0.9c0.2-0.3,1.2-1.8,3-4.5l2.8-4
			L56.4,2.3L56.4,2.3z"/>
		<path class="st0" d="M60.8,31.2h-3c1.4-2.5,2.4-4.9,3-7.3c0.6-2.4,0.9-5.2,0.9-8.2c0-3.2-0.3-5.9-0.9-8.3c-0.6-2.4-1.6-4.8-3-7.3
			h3c2.8,4.3,4.3,9.5,4.3,15.6C65.1,21.6,63.7,26.8,60.8,31.2z"/>
	</g>
	<g>
		<g>
			<path class="st0" d="M32.7,406.9H0v-3.2h32.7V406.9z"/>
		</g>
	</g>
</g>
</svg>
