<?xml version="1.0" encoding="utf-8"?>
<!-- Generator: Adobe Illustrator 25.4.1, SVG Export Plug-In . SVG Version: 6.00 Build 0)  -->
<svg version="1.1" id="Capa_1" xmlns="http://www.w3.org/2000/svg" xmlns:xlink="http://www.w3.org/1999/xlink" x="0px" y="0px"
	 viewBox="0 0 256.5 165.3" style="enable-background:new 0 0 256.5 165.3;" xml:space="preserve">
<style type="text/css">
	.st0{fill:#FFFFFF;}
</style>
<g>
	<g>
		<g>
			<path class="st0" d="M2.8,149.4v6.4h9v-6.4h2.8V165h-2.8v-6.8h-9v6.8H0v-15.7H2.8z"/>
			<path class="st0" d="M26.4,157.2L26.4,157.2c0-4.9,2.8-8.1,8.4-8.1c5.6,0,8.4,3.2,8.4,8.1v0c0,4.9-2.8,8.1-8.4,8.1
				S26.4,162.1,26.4,157.2z M40.3,157.2L40.3,157.2c0-3.2-1.4-5.6-5.5-5.6c-4.1,0-5.5,2.4-5.5,5.6v0c0,3.2,1.4,5.6,5.5,5.6
				C38.9,162.8,40.3,160.4,40.3,157.2z"/>
			<path class="st0" d="M54.2,159.4H57c0.2,2.5,2.1,3.5,5.4,3.5c3.1,0,4.5-0.8,4.5-2.4c0-1.1-0.6-1.5-2.2-1.9
				c-1.6-0.3-4.6-0.4-6.7-0.9c-2.1-0.5-3.3-1.6-3.3-3.9c0-3.1,2.5-4.7,6.8-4.7c4.8,0,7.4,1.8,7.7,5.6h-2.8c-0.2-2.2-1.9-3.1-5-3.1
				c-2.6,0-3.9,0.7-3.9,2.1c0,1,0.5,1.5,2.1,1.8c1.6,0.3,4.7,0.4,6.8,0.9c2,0.5,3.2,1.6,3.2,3.9c0,3.4-2.8,5.1-7.4,5.1
				C57.3,165.3,54.4,163.6,54.2,159.4z"/>
			<path class="st0" d="M96.3,154.1L96.3,154.1c0,3.7-2.4,4.8-5.8,4.8h-6.3v6.2h-2.8v-15.7h9.1C93.9,149.4,96.3,150.4,96.3,154.1z
				 M93.4,154.1c0-1.9-1.2-2.3-3-2.3h-6.2v4.7h6.2C92.3,156.5,93.4,156,93.4,154.1L93.4,154.1z"/>
			<path class="st0" d="M110.8,149.4V165H108v-15.7H110.8z"/>
			<path class="st0" d="M122.4,151.8v-2.5h15.9v2.5h-6.6V165h-2.8v-13.2H122.4z"/>
			<path class="st0" d="M158.5,161.3h-8.4l-1.7,3.8h-2.9l7.2-15.7h3.3l7.2,15.7h-3L158.5,161.3z M157.4,158.9l-3.1-7.1l-3.1,7.1
				H157.4z"/>
			<path class="st0" d="M177.1,149.4v13.2h10v2.5h-12.8v-15.7L177.1,149.4L177.1,149.4z"/>
			<path class="st0" d="M201.6,149.4V165h-2.8v-15.7H201.6z"/>
			<path class="st0" d="M213.2,151.8v-2.5h15.9v2.5h-6.6V165h-2.8v-13.2H213.2z"/>
			<path class="st0" d="M256.5,149.4l-7.2,9.9v5.8h-2.8v-5.8l-7.2-9.9h3.3l5.3,7.5l5.3-7.5H256.5z"/>
		</g>
	</g>
	<g>
		<polygon class="st0" points="168,98 88.6,98 84.7,105.7 171.8,105.7 		"/>
		<polygon class="st0" points="173.8,109.7 82.7,109.7 78.9,117.4 177.7,117.4 		"/>
		<path class="st0" d="M167.2,31.7c0-10.2-8.3-18.5-18.5-18.5c-9.1,0-16.9-5.4-20.4-13.2c-3.5,7.8-11.4,13.2-20.4,13.2
			c-10.2,0-18.5,8.3-18.5,18.5V94h77.9L167.2,31.7L167.2,31.7z M120.3,76.5c-2.4,0-4.7-0.4-6.9-1.1c9.3-2.9,16-11.6,16-21.8
			s-6.7-18.9-16-21.8c2.2-0.7,4.5-1,6.9-1c12.6,0,22.9,10.2,22.9,22.9C143.1,66.3,132.9,76.5,120.3,76.5z"/>
	</g>
</g>
</svg>
