<?xml version="1.0" encoding="utf-8"?>
<!-- Generator: Adobe Illustrator 25.4.1, SVG Export Plug-In . SVG Version: 6.00 Build 0)  -->
<svg version="1.1" id="Capa_1" xmlns="http://www.w3.org/2000/svg" xmlns:xlink="http://www.w3.org/1999/xlink" x="0px" y="0px"
	 viewBox="0 0 316.48 203.91" style="enable-background:new 0 0 316.48 203.91;" xml:space="preserve">
<g>
	<g>
		<g>
			<path d="M32.74,168.66v6.44h9.05v-6.44h2.77v15.68h-2.77v-6.75h-9.05v6.75h-2.77v-15.68H32.74z"/>
			<path d="M56.4,176.53v-0.04c0-4.88,2.79-8.07,8.38-8.07c5.6,0,8.37,3.19,8.37,8.07v0.04c0,4.88-2.78,8.07-8.37,8.07
				C59.19,184.6,56.4,181.41,56.4,176.53z M70.31,176.53v-0.04c0-3.17-1.42-5.6-5.54-5.6c-4.11,0-5.53,2.43-5.53,5.6v0.04
				c0,3.17,1.42,5.6,5.53,5.6C68.89,182.12,70.31,179.69,70.31,176.53z"/>
			<path d="M84.19,178.67h2.76c0.18,2.49,2.11,3.49,5.39,3.49c3.05,0,4.51-0.75,4.51-2.37c0-1.06-0.55-1.54-2.15-1.86
				c-1.61-0.32-4.63-0.39-6.69-0.88c-2.06-0.47-3.27-1.58-3.27-3.91c0-3.09,2.52-4.74,6.85-4.74c4.82,0,7.44,1.76,7.66,5.55h-2.76
				c-0.21-2.23-1.91-3.11-5-3.11c-2.58,0-3.93,0.7-3.93,2.05c0,1,0.49,1.48,2.13,1.8c1.63,0.33,4.74,0.44,6.75,0.9
				c2,0.46,3.22,1.58,3.22,3.92c0,3.42-2.83,5.08-7.44,5.08C87.25,184.6,84.38,182.86,84.19,178.67z"/>
			<path d="M126.24,173.37v0.02c0,3.68-2.41,4.77-5.79,4.77h-6.28v6.19h-2.77v-15.68h9.08
				C123.83,168.66,126.24,169.71,126.24,173.37z M123.39,173.41c0-1.88-1.15-2.32-3.01-2.32h-6.21v4.69h6.21
				c1.85,0,3.01-0.45,3.01-2.34V173.41z"/>
			<path d="M140.73,168.66v15.68h-2.77v-15.68H140.73z"/>
			<path d="M152.33,171.15v-2.49h15.89v2.49h-6.55v13.2h-2.78v-13.2H152.33z"/>
			<path d="M188.45,180.59h-8.4l-1.66,3.76h-2.88l7.16-15.68h3.27l7.17,15.68h-3.01L188.45,180.59z M187.4,178.19l-3.13-7.09
				l-3.14,7.09H187.4z"/>
			<path d="M207.12,168.66v13.19h10.03v2.5h-12.8v-15.68H207.12z"/>
			<path d="M231.53,168.66v15.68h-2.77v-15.68H231.53z"/>
			<path d="M243.13,171.15v-2.49h15.89v2.49h-6.55v13.2h-2.78v-13.2H243.13z"/>
			<path d="M286.51,168.66l-7.21,9.87v5.82h-2.77v-5.82l-7.17-9.87h3.31l5.31,7.46l5.32-7.46H286.51z"/>
		</g>
	</g>
	<g>
		<polygon points="197.93,117.27 118.56,117.27 114.68,125.01 201.8,125.01 		"/>
		<polygon points="203.77,128.96 112.71,128.96 108.84,136.7 207.64,136.7 		"/>
		<path d="M197.17,51.02c0-10.19-8.29-18.48-18.48-18.48c-9.09,0-16.93-5.44-20.45-13.23c-3.52,7.79-11.36,13.23-20.45,13.23
			c-10.19,0-18.48,8.29-18.48,18.48v62.3h77.86V51.02z M150.23,95.82c-2.39,0-4.7-0.37-6.87-1.05c9.28-2.92,16.02-11.59,16.02-21.84
			c0-10.25-6.74-18.92-16.02-21.84c2.17-0.68,4.47-1.05,6.87-1.05c12.64,0,22.89,10.25,22.89,22.89
			C173.12,85.58,162.87,95.82,150.23,95.82z"/>
	</g>
</g>
</svg>
