<?xml version="1.0" encoding="utf-8"?>
<!-- Generator: Adobe Illustrator 25.4.1, SVG Export Plug-In . SVG Version: 6.00 Build 0)  -->
<svg version="1.1" id="Capa_1" xmlns="http://www.w3.org/2000/svg" xmlns:xlink="http://www.w3.org/1999/xlink" x="0px" y="0px"
	 viewBox="0 0 326.92 209.97" style="enable-background:new 0 0 326.92 209.97;" xml:space="preserve">
<style type="text/css">
	.st0{fill:#FFFFFF;}
</style>
<g>
	<g>
		<g>
			<path d="M49.42,182.92v4.46h-2.76v-4.23c0-1.83-0.88-2.56-2.71-2.56h-6.39v6.79h-2.78v-15.68h8.98c3.16,0,5.51,0.84,5.51,4.11
				c0,1.86-0.79,2.96-2.09,3.46C48.62,179.73,49.42,180.95,49.42,182.92z M46.46,176.16c0-1.72-1.11-2.02-2.94-2.02h-5.96v4.03h6.26
				C45.47,178.17,46.46,177.77,46.46,176.16z"/>
			<path d="M74.8,184.88v2.5H61.56v-15.68h13.18v2.5H64.31v3.95h9.94v2.48h-9.94v4.26H74.8z"/>
			<path d="M98.34,183.62h-8.4l-1.66,3.76H85.4l7.16-15.68h3.27l7.17,15.68H100L98.34,183.62z M97.28,181.22l-3.13-7.09L91,181.22
				H97.28z"/>
			<path d="M117,171.69v13.19h10.03v2.5h-12.8v-15.68H117z"/>
			<path d="M166.63,184.88v2.5H153.4v-15.68h13.18v2.5h-10.43v3.95h9.94v2.48h-9.94v4.26H166.63z"/>
			<path d="M177.66,181.7h2.76c0.18,2.49,2.11,3.49,5.39,3.49c3.05,0,4.51-0.75,4.51-2.37c0-1.06-0.55-1.54-2.15-1.86
				c-1.61-0.32-4.63-0.39-6.69-0.88c-2.06-0.47-3.27-1.58-3.27-3.91c0-3.09,2.52-4.74,6.85-4.74c4.82,0,7.44,1.76,7.66,5.55h-2.76
				c-0.21-2.23-1.91-3.11-5-3.11c-2.58,0-3.93,0.7-3.93,2.05c0,1,0.49,1.48,2.13,1.8c1.63,0.33,4.74,0.44,6.75,0.9
				c2,0.46,3.22,1.58,3.22,3.92c0,3.42-2.83,5.08-7.44,5.08C180.72,187.63,177.85,185.89,177.66,181.7z"/>
			<path d="M203.32,174.18v-2.49h15.89v2.49h-6.55v13.2h-2.78v-13.2H203.32z"/>
			<path d="M239.44,183.62h-8.4l-1.66,3.76h-2.88l7.16-15.68h3.27l7.17,15.68h-3.01L239.44,183.62z M238.39,181.22l-3.13-7.09
				l-3.14,7.09H238.39z"/>
			<path d="M251.41,174.18v-2.49h15.89v2.49h-6.56v13.2h-2.78v-13.2H251.41z"/>
			<path d="M292.13,184.88v2.5H278.9v-15.68h13.18v2.5h-10.43v3.95h9.94v2.48h-9.94v4.26H292.13z"/>
		</g>
	</g>
	<g>
		<path d="M182.96,79.48l0,60.25h31.12V22.34C194.8,34.86,182.96,56.45,182.96,79.48z"/>
		<path d="M147.9,106.2l0,33.52h31.12V49.07C159.74,61.59,147.9,83.17,147.9,106.2z"/>
		<path d="M112.84,132.93v6.8h31.12V75.79C124.68,88.31,112.84,109.9,112.84,132.93z"/>
	</g>
</g>
</svg>
