<svg width="408" height="26" viewBox="0 0 408 26" fill="none" xmlns="http://www.w3.org/2000/svg">
<path d="M23.2034 18.1678V25.2135H18.8242V18.524C18.8242 15.6345 17.4372 14.4668 14.5244 14.4668H4.39898V25.2135H0V0.395172H14.2271C19.2403 0.395172 22.9458 1.72119 22.9458 6.88673C22.9458 9.83564 21.6974 11.5575 19.6367 12.3689C21.9352 13.121 23.2034 15.0408 23.2034 18.1678ZM18.5271 7.48045C18.5271 4.76903 16.7635 4.29404 13.8705 4.29404H4.4187V10.6669H14.3262C16.9417 10.6669 18.5271 10.0137 18.5271 7.48045Z" fill="white"/>
<path d="M63.4076 21.2762V25.2345H42.4434V0.416168H63.3086V4.37444H46.7828V10.6285H62.5556V14.5472H46.8027V21.296H63.4076V21.2762Z" fill="white"/>
<path d="M100.7 19.2761H87.4038L84.7685 25.2135H80.2109L91.565 0.395172H96.7565L108.11 25.2135H103.355L100.7 19.2761ZM99.0351 15.4762L94.0814 4.25448L89.108 15.4762H99.0351Z" fill="white"/>
<path d="M130.283 0.395172V21.2552H146.175V25.2135H125.904V0.395172H130.283Z" fill="white"/>
<path d="M208.909 21.2762V25.2345H187.945V0.416168H208.81V4.37444H192.284V10.6285H208.037V14.5472H192.284V21.296H208.909V21.2762Z" fill="white"/>
<path d="M226.386 16.2487H230.765C231.042 20.1872 234.114 21.7705 239.305 21.7705C244.12 21.7705 246.458 20.583 246.458 18.0299C246.458 16.3476 245.587 15.5956 243.05 15.081C240.514 14.5862 235.719 14.4675 232.449 13.6956C229.18 12.9435 227.278 11.2019 227.278 7.50094C227.278 2.61247 231.28 0 238.136 0C245.765 0 249.926 2.79058 250.263 8.78736H245.884C245.567 5.24471 242.852 3.85934 237.978 3.85934C233.896 3.85934 231.756 4.96765 231.756 7.10511C231.756 8.68842 232.529 9.44047 235.124 9.95504C237.72 10.4696 242.634 10.6477 245.824 11.38C248.995 12.1123 250.937 13.8737 250.937 17.5747C250.937 22.9778 246.458 25.61 239.147 25.61C231.221 25.61 226.683 22.859 226.386 16.2487Z" fill="white"/>
<path d="M267.026 4.33363V0.395172H292.191V4.33363H281.808V25.2135H277.409V4.33363H267.026Z" fill="white"/>
<path d="M324.252 19.2761H310.956L308.32 25.2135H303.763L315.117 0.395172H320.309L331.662 25.2135H326.907L324.252 19.2761ZM322.587 15.4762L317.633 4.25448L312.66 15.4762H322.587Z" fill="white"/>
<path d="M343.215 4.33363V0.395172H368.38V4.33363H357.996V25.2135H353.598V4.33363H343.215Z" fill="white"/>
<path d="M407.732 21.2762V25.2345H386.768V0.416168H407.633V4.37444H391.108V10.6285H406.86V14.5472H391.108V21.296H407.732V21.2762Z" fill="white"/>
</svg>
