<svg width="320" height="198" viewBox="0 0 320 198" fill="none" xmlns="http://www.w3.org/2000/svg">
<path d="M41 197.885H0V194H41V197.885Z" fill="black"/>
<path d="M10.0619 69.724H12.5238C12.9999 69.724 13.3319 69.8254 13.5167 70.025C13.7015 70.2246 13.8205 70.6079 13.8738 71.1687L13.9521 72.2141C13.9771 72.8826 14.1118 73.38 14.3498 73.7H16.4139C16.1226 73.2976 15.9629 72.8034 15.9378 72.2141L15.8188 70.7695C15.7656 69.7525 15.3678 69.0809 14.6286 68.7609C15.609 68.3332 16.0976 67.5412 16.0976 66.3912C16.0976 65.4534 15.7718 64.7311 15.1235 64.221C14.4751 63.7141 13.595 63.4575 12.4831 63.4575H8.07617V73.7H10.0619V69.724ZM10.0619 65.2665H12.4048C13.4885 65.2665 14.0335 65.7227 14.0335 66.632C14.0335 67.5444 13.5292 67.9974 12.5238 67.9974H10.0619V65.2665Z" fill="black"/>
<path d="M11.9289 78.4014C14.7353 78.4014 17.0781 77.4637 18.9574 75.5882C20.8649 73.6873 21.8171 71.3968 21.8171 68.7197C21.8171 65.9888 20.8649 63.6856 18.9574 61.8101C17.0781 59.9378 14.7353 59 11.9289 59C9.12249 59 6.77965 59.9378 4.90036 61.8133C2.9647 63.6856 2 65.9888 2 68.7197C2 71.4253 2.9647 73.7158 4.90036 75.5882C6.77965 77.4637 9.12249 78.4014 11.9289 78.4014ZM6.36934 63.1787C7.82578 61.7056 9.68001 60.9706 11.9289 60.9706C14.1527 60.9706 16.0069 61.7087 17.4884 63.1787C18.9699 64.6772 19.7123 66.5274 19.7123 68.7229C19.7123 70.8645 18.9699 72.6862 17.4884 74.1847C16.0038 75.6579 14.1527 76.3929 11.9289 76.3929C9.67688 76.3929 7.82578 75.6579 6.36934 74.1847C4.85964 72.6862 4.1048 70.8645 4.1048 68.7229C4.1048 66.5242 4.85964 64.6772 6.36934 63.1787Z" fill="black"/>
<path d="M45.2298 75.509H59.8037V88.2415H64.054V59.6431H59.8037V71.5742H45.2298V59.6431H40.9795V88.2415H45.2298V75.509Z" fill="black"/>
<path d="M73.4249 80.8124H86.132L88.9133 88.2447H93.4017L82.2011 59.6431H77.315L66.2773 88.2415H70.6843L73.4249 80.8124ZM75.3699 75.509C76.4537 72.6165 77.9132 68.7071 79.7393 63.7807C81.274 68.0671 82.743 71.9765 84.1462 75.509L84.7413 77.074H74.7748L75.3699 75.509Z" fill="black"/>
<path d="M111.747 83.1821C110.131 84.4398 108.305 85.0703 106.266 85.0703C103.537 85.0703 101.367 84.0723 99.7539 82.0764C98.1377 80.0805 97.3327 77.3718 97.3327 73.9407C97.3327 70.5129 98.1408 67.801 99.7539 65.8082C101.37 63.8123 103.541 62.8144 106.266 62.8144C108.305 62.8144 110.03 63.3435 111.449 64.4016C112.865 65.4598 113.839 67.0311 114.368 69.1221H118.656C118.021 65.7734 116.577 63.2453 114.328 61.5313C112.079 59.8427 109.391 59 106.269 59C102.297 59 99.0804 60.3528 96.6186 63.0583C94.1567 65.7639 92.9258 69.3914 92.9258 73.9439C92.9258 78.5218 94.1692 82.1525 96.6593 84.8295C99.1212 87.5351 102.325 88.8878 106.269 88.8878C109.551 88.8878 112.37 87.9121 114.729 85.9542C117.112 83.9995 118.475 81.24 118.819 77.6791H114.569C114.249 80.09 113.31 81.9244 111.747 83.1821Z" fill="black"/>
<path d="M122.39 88.2415H142.445V84.386H126.64V75.3474H141.054V71.5742H126.64V63.4987H142.564V59.6431H122.39V88.2415Z" fill="black"/>
<path d="M150.109 79.2853C150.109 72.8858 150.056 68.0924 149.949 64.9053C150.638 66.8886 151.418 69.0555 152.292 71.4126L158.766 88.2415H162.34L168.733 71.4126C169.766 68.7071 170.559 66.4989 171.116 64.7849C171.01 67.9974 170.956 72.8319 170.956 79.2853V88.2415H175.047V59.6431H169.13L163.53 74.4667C162.443 77.4668 161.466 80.2896 160.592 82.9413C159.85 80.7205 158.885 78.0276 157.692 74.8658L151.897 59.6431H146.021V88.2415H150.112V79.2853H150.109Z" fill="black"/>
<path d="M192.603 88.8847C196.734 88.8847 200.07 87.5065 202.61 84.7471C205.125 81.9877 206.381 78.3856 206.381 73.9407C206.381 69.4959 205.122 65.8811 202.61 63.0963C200.07 60.3654 196.731 59 192.603 59C188.419 59 185.083 60.3654 182.596 63.0963C180.053 65.8811 178.784 69.4959 178.784 73.9407C178.784 78.4141 180.056 82.0162 182.596 84.7471C185.083 87.5065 188.419 88.8847 192.603 88.8847ZM185.772 65.8272C187.492 63.8472 189.769 62.8556 192.603 62.8556C195.435 62.8556 197.712 63.8472 199.434 65.8272C201.129 67.8105 201.978 70.5129 201.978 73.9407C201.978 77.3686 201.129 80.0615 199.434 82.0162C197.74 84.0248 195.463 85.0291 192.603 85.0291C189.744 85.0291 187.466 84.0248 185.772 82.0162C184.049 80.0362 183.191 77.3433 183.191 73.9407C183.191 70.5699 184.049 67.8643 185.772 65.8272Z" fill="black"/>
<path d="M225.187 84.0058C224.063 84.8232 222.453 85.2318 220.36 85.2318C215.302 85.2318 212.737 83.0902 212.655 78.8038H208.408C208.433 82.0986 209.486 84.6014 211.565 86.3153C213.642 88.0293 216.549 88.8878 220.282 88.8878C223.724 88.8878 226.418 88.1243 228.363 86.5973C230.308 85.0703 231.282 82.9825 231.282 80.3308C231.282 78.1068 230.574 76.3422 229.159 75.0274C227.743 73.7158 225.419 72.7115 222.19 72.0145L219.728 71.4918C217.372 70.9849 215.756 70.3671 214.882 69.6448C214.008 68.9763 213.573 67.9847 213.573 66.6731C213.573 65.3869 214.062 64.3984 215.042 63.7015C216.022 63.0045 217.438 62.656 219.292 62.656C221.676 62.656 223.402 63.0932 224.476 63.9612C225.547 64.8325 226.152 66.1916 226.283 68.0386H230.493C230.44 65.2253 229.481 63.0171 227.614 61.4109C225.748 59.8047 222.957 59 219.252 59C216.179 59 213.745 59.7033 211.944 61.11C210.143 62.5166 209.244 64.3984 209.244 66.7523C209.244 69.1094 209.987 70.9564 211.468 72.2965C212.95 73.6366 215.149 74.5997 218.061 75.189L220.483 75.7117C222.891 76.2471 224.561 76.8554 225.488 77.5397C226.415 78.224 226.878 79.1935 226.878 80.4512C226.875 82.0036 226.312 83.1884 225.187 84.0058Z" fill="black"/>
<path d="M262.657 86.9585L266.391 90.9756L268.774 88.6471L265.241 84.8295C267.81 82.1239 269.094 78.4965 269.094 73.9439C269.094 69.4991 267.835 65.8843 265.323 63.0995C262.776 60.3654 259.441 59 255.309 59C251.125 59 247.789 60.3654 245.302 63.0963C242.759 65.8811 241.49 69.4959 241.49 73.9407C241.49 78.4141 242.762 82.0162 245.302 84.7471C247.789 87.5065 251.125 88.8847 255.309 88.8847C258.062 88.8847 260.512 88.2415 262.657 86.9585ZM248.478 82.0162C246.755 80.0362 245.897 77.3433 245.897 73.9407C245.897 70.5667 246.758 67.8612 248.478 65.8272C250.198 63.8472 252.475 62.8556 255.309 62.8556C258.141 62.8556 260.418 63.8472 262.14 65.8272C263.835 67.8105 264.684 70.5129 264.684 73.9407C264.684 77.1532 263.904 79.751 262.341 81.7343L258.767 77.8787L256.424 80.2072L259.838 83.9044C258.513 84.6552 257.004 85.0291 255.312 85.0291C252.45 85.0291 250.173 84.0248 248.478 82.0162Z" fill="black"/>
<path d="M283.861 88.8466C287.46 88.8466 290.27 87.8614 292.281 85.894C294.291 83.9266 295.3 81.1482 295.3 77.5587V59.6431H291.05V77.5967C291.05 80.0615 290.433 81.9212 289.202 83.1789C287.971 84.4367 286.189 85.0671 283.861 85.0671C281.531 85.0671 279.752 84.4398 278.521 83.1789C277.29 81.9212 276.673 80.0583 276.673 77.5967V59.6431H272.423V77.5587C272.423 81.1482 273.428 83.9266 275.442 85.894C277.456 87.8614 280.263 88.8466 283.861 88.8466Z" fill="black"/>
<path d="M320 63.4987V59.6431H299.826V88.2415H319.881V84.386H304.076V75.3474H318.491V71.5742H304.076V63.4987H320Z" fill="black"/>
<path d="M62.5037 115.316C62.5037 113.095 61.7958 111.327 60.3801 110.013C58.9644 108.701 56.6403 107.697 53.4111 107L50.9492 106.477C48.5939 105.97 46.9777 105.352 46.1038 104.63C45.2299 103.962 44.7946 102.97 44.7946 101.658C44.7946 100.372 45.2832 99.3837 46.2636 98.6867C47.2439 97.9898 48.6596 97.6413 50.5139 97.6413C52.8974 97.6413 54.6232 98.0785 55.6976 98.9465C56.7688 99.8178 57.3701 101.177 57.5048 103.024H61.7144C61.6612 100.211 60.7027 98.0024 58.836 96.3962C56.9692 94.79 54.1816 93.9853 50.4763 93.9853C47.4037 93.9853 44.97 94.6886 43.169 96.0952C41.368 97.5019 40.4691 99.3837 40.4691 101.738C40.4691 104.095 41.2114 105.942 42.6929 107.282C44.1744 108.622 46.3732 109.585 49.2861 110.174L51.7072 110.697C54.1158 111.232 55.7853 111.841 56.7124 112.525C57.6395 113.209 58.103 114.179 58.103 115.436C58.103 116.989 57.5393 118.174 56.4148 118.991C55.2904 119.808 53.6805 120.217 51.5882 120.217C46.5298 120.217 43.9646 118.075 43.8831 113.789H39.6328C39.6579 117.084 40.7103 119.587 42.79 121.301C44.8666 123.015 47.7732 123.87 51.5068 123.87C54.949 123.87 57.6426 123.106 59.5877 121.579C61.5327 120.056 62.5037 117.965 62.5037 115.316Z" fill="black"/>
<path d="M85.3402 120.879C87.351 118.912 88.3596 116.133 88.3596 112.544V94.6284H84.1093V112.585C84.1093 115.05 83.4922 116.91 82.2613 118.167C81.0304 119.425 79.2482 120.056 76.921 120.056C74.5907 120.056 72.8116 119.425 71.5807 118.167C70.3498 116.91 69.7327 115.047 69.7327 112.585V94.6284H65.4824V112.544C65.4824 116.133 66.4878 118.912 68.5018 120.879C70.5126 122.847 73.319 123.832 76.921 123.832C80.5198 123.832 83.3294 122.847 85.3402 120.879Z" fill="black"/>
<path d="M110.516 118.167C108.899 119.425 107.073 120.056 105.034 120.056C102.306 120.056 100.136 119.058 98.5226 117.062C96.9064 115.066 96.1015 112.357 96.1015 108.929C96.1015 105.501 96.9096 102.789 98.5226 100.794C100.139 98.7976 102.309 97.7997 105.034 97.7997C107.073 97.7997 108.799 98.3288 110.218 99.3869C111.634 100.445 112.608 102.016 113.137 104.107H117.425C116.789 100.759 115.345 98.2305 113.096 96.5166C110.844 94.828 108.157 93.9853 105.034 93.9853C101.063 93.9853 97.8461 95.3381 95.3842 98.0436C92.9223 100.749 91.6914 104.377 91.6914 108.929C91.6914 113.507 92.9349 117.138 95.4249 119.815C97.8868 122.52 101.091 123.873 105.034 123.873C108.317 123.873 111.136 122.897 113.494 120.939C115.878 118.985 117.24 116.225 117.585 112.664H113.334C113.018 115.075 112.079 116.91 110.516 118.167Z" fill="black"/>
<path d="M141.214 119.371H125.409V110.336H139.827V106.559H125.409V98.484H141.333V94.6284H121.159V123.23H141.214V119.371Z" fill="black"/>
<path d="M165.2 119.412C167.662 116.868 168.893 113.374 168.893 108.929C168.893 104.484 167.662 100.99 165.2 98.446C162.685 95.902 159.243 94.6316 154.877 94.6316H144.788V123.233H154.877C159.246 123.23 162.685 121.956 165.2 119.412ZM149.038 119.454V98.4048H154.836C157.934 98.4048 160.311 99.3172 161.965 101.136C163.619 102.957 164.445 105.555 164.445 108.929C164.445 112.303 163.619 114.901 161.965 116.723C160.311 118.544 157.934 119.454 154.836 119.454H149.038Z" fill="black"/>
<path d="M184.303 94.6284H179.417L168.376 123.23H172.783L175.524 115.798H188.231L191.012 123.23H195.5L184.303 94.6284ZM176.877 112.062L177.472 110.494C178.555 107.602 180.015 103.692 181.841 98.766C183.376 103.049 184.845 106.962 186.248 110.494L186.843 112.062H176.877Z" fill="black"/>
<path d="M7.36164 129.614H3.11133V158.215H21.2214V154.357H7.36164V129.614Z" fill="black"/>
<path d="M34.2858 128.971C30.1013 128.971 26.7655 130.336 24.2786 133.067C21.7384 135.852 20.4668 139.466 20.4668 143.911C20.4668 148.385 21.7384 151.987 24.2786 154.718C26.7655 157.477 30.1013 158.855 34.2858 158.855C38.4171 158.855 41.7528 157.477 44.293 154.718C46.8081 151.958 48.0672 148.356 48.0672 143.911C48.0672 139.466 46.8081 135.852 44.293 133.067C41.7528 130.336 38.4171 128.971 34.2858 128.971ZM41.117 151.987C39.4225 153.995 37.1454 155 34.2858 155C31.4262 155 29.1491 153.995 27.4546 151.987C25.7319 150.007 24.8737 147.314 24.8737 143.911C24.8737 140.537 25.7351 137.832 27.4546 135.798C29.1741 133.818 31.4512 132.826 34.2858 132.826C37.1173 132.826 39.3943 133.818 41.117 135.798C42.8115 137.781 43.6572 140.483 43.6572 143.911C43.6603 147.342 42.8115 150.032 41.117 151.987Z" fill="black"/>
<path d="M64.0726 129.614H59.8223V158.215H64.0726V129.614Z" fill="black"/>
<path d="M87.9778 138.291C87.9778 144.691 88.0311 149.5 88.1376 152.712C86.8127 150.33 84.9741 147.251 82.6188 143.474L73.8832 129.617H68.9971V158.218H73.1284V149.541C73.1284 143.141 73.0751 138.348 72.9686 135.161C74.1056 137.277 75.9473 140.344 78.4875 144.361L87.1854 158.218H92.0684V129.617H87.9778V138.291Z" fill="black"/>
<path d="M97.0322 158.215H117.087V154.357H101.279V145.321H115.697V141.545H101.279V133.469H117.206V129.614H97.0322V158.215Z" fill="black"/>
<path d="M132.971 141.985L130.509 141.462C128.153 140.955 126.537 140.338 125.663 139.615C124.79 138.947 124.354 137.955 124.354 136.644C124.354 135.357 124.843 134.369 125.823 133.672C126.803 132.975 128.219 132.627 130.073 132.627C132.457 132.627 134.183 133.064 135.257 133.932C136.328 134.803 136.933 136.162 137.064 138.009H141.274C141.221 135.196 140.262 132.988 138.396 131.382C136.529 129.775 133.741 128.971 130.036 128.971C126.963 128.971 124.53 129.674 122.729 131.081C120.928 132.487 120.029 134.369 120.029 136.723C120.029 139.08 120.771 140.927 122.252 142.267C123.734 143.607 125.933 144.57 128.846 145.16L131.267 145.682C133.675 146.218 135.345 146.826 136.272 147.51C137.199 148.195 137.663 149.164 137.663 150.422C137.663 151.974 137.099 153.159 135.974 153.976C134.85 154.794 133.24 155.202 131.148 155.202C126.089 155.202 123.524 153.061 123.443 148.774H119.192C119.217 152.069 120.27 154.572 122.35 156.286C124.426 158 127.333 158.858 131.066 158.858C134.509 158.858 137.202 158.095 139.147 156.568C141.092 155.041 142.066 152.953 142.066 150.301C142.066 148.077 141.359 146.313 139.943 144.998C138.524 143.686 136.2 142.682 132.971 141.985Z" fill="black"/>
<path d="M164.624 132.044C162.929 130.425 160.546 129.614 157.476 129.614H145.442V158.215H149.693V147.65H157.476C160.546 147.65 162.929 146.839 164.624 145.22C166.318 143.601 167.164 141.412 167.164 138.652C167.164 135.868 166.315 133.666 164.624 132.044ZM161.444 142.527C160.517 143.423 159.167 143.873 157.395 143.873H149.69V133.39H157.395C159.167 133.39 160.517 133.846 161.444 134.756C162.372 135.668 162.835 136.964 162.835 138.652C162.835 140.341 162.372 141.63 161.444 142.527Z" fill="black"/>
<path d="M170.7 158.215H190.752V154.357H174.947V145.321H189.365V141.545H174.947V133.469H190.871V129.614H170.7V158.215Z" fill="black"/>
<path d="M215.694 150.26C215.641 148.679 215.296 147.415 214.66 146.465C214.024 145.514 213.019 144.836 211.641 144.437C213.151 143.956 214.322 143.119 215.155 141.928C215.988 140.737 216.405 139.27 216.405 137.531C216.405 135.066 215.537 133.133 213.802 131.727C212.067 130.32 209.693 129.617 206.673 129.617H194.323V158.218H198.574V146.449H206.795C208.437 146.449 209.627 146.829 210.369 147.593C211.112 148.356 211.522 149.661 211.6 151.508L211.719 154.562C211.744 156.223 212.023 157.442 212.552 158.218H216.922C216.417 157.363 216.101 156.197 215.969 154.724L215.694 150.26ZM210.629 141.583C209.69 142.441 208.399 142.869 206.758 142.869H198.577V133.308H206.438C208.239 133.308 209.621 133.697 210.588 134.474C211.553 135.25 212.039 136.403 212.039 137.927C212.039 139.508 211.569 140.727 210.629 141.583Z" fill="black"/>
<path d="M228.479 129.614L217.438 158.215H221.845L224.586 150.783H237.293L240.074 158.215H244.563L233.365 129.614H228.479ZM235.906 147.048H225.939L226.534 145.483C227.618 142.59 229.078 138.681 230.904 133.754C232.438 138.041 233.907 141.95 235.31 145.483L235.906 147.048Z" fill="black"/>
<path d="M256.916 129.614H246.827V158.215H256.916C261.285 158.215 264.724 156.945 267.239 154.401C269.701 151.857 270.932 148.363 270.932 143.918C270.932 139.473 269.701 135.978 267.239 133.434C264.724 130.887 261.282 129.614 256.916 129.614ZM264.004 151.708C262.35 153.53 259.973 154.439 256.875 154.439H251.077V133.39H256.875C259.973 133.39 262.35 134.299 264.004 136.121C265.658 137.943 266.484 140.54 266.484 143.914C266.484 147.289 265.658 149.886 264.004 151.708Z" fill="black"/>
<path d="M287.294 128.971C283.109 128.971 279.773 130.336 277.286 133.067C274.743 135.852 273.475 139.466 273.475 143.911C273.475 148.385 274.746 151.987 277.286 154.718C279.773 157.477 283.109 158.855 287.294 158.855C291.425 158.855 294.761 157.477 297.301 154.718C299.816 151.958 301.072 148.356 301.072 143.911C301.072 139.466 299.813 135.852 297.301 133.067C294.761 130.336 291.425 128.971 287.294 128.971ZM294.125 151.987C292.43 153.995 290.153 155 287.294 155C284.434 155 282.157 153.995 280.462 151.987C278.74 150.007 277.882 147.314 277.882 143.911C277.882 140.537 278.743 137.832 280.462 135.798C282.182 133.818 284.459 132.826 287.294 132.826C290.125 132.826 292.402 133.818 294.125 135.798C295.819 137.781 296.668 140.483 296.668 143.911C296.665 147.342 295.819 150.032 294.125 151.987Z" fill="black"/>
<path d="M5.65442 24.5634H3.31062C1.10598 21.184 0 17.0962 0 12.2928C0 7.47453 1.10598 3.3794 3.31062 0H5.65442C4.59238 1.88892 3.82333 3.79998 3.33992 5.71842C2.85651 7.68851 2.6148 9.87995 2.6148 12.2928C2.6148 14.6539 2.85651 16.8158 3.33992 18.7933C3.80135 20.7117 4.57041 22.6376 5.65442 24.5634Z" fill="black"/>
<path d="M18.5012 11.0383L22.0096 1.7782H25.7231V19.6418H23.1595V14.0488C23.1595 10.0201 23.1961 7.00225 23.2621 4.99527C22.9105 6.06517 22.4124 7.44497 21.7679 9.13467L17.7615 19.6492H15.5202L11.4625 9.13467C10.9132 7.66633 10.4224 6.30866 9.99029 5.06906C10.0562 7.06128 10.0928 10.0496 10.0928 14.0488V19.6418H7.5293V1.7782H11.2135L14.8464 11.2892C15.5934 13.2667 16.2014 14.9416 16.6628 16.3288C17.2048 14.676 17.82 12.9125 18.5012 11.0383Z" fill="black"/>
<path d="M42.9579 1.7782L37.0324 10.4333L43.3094 19.6418H40.2185L37.904 16.2034C36.9885 14.8678 36.1682 13.643 35.4357 12.5436C34.3078 14.2185 33.4874 15.436 32.9674 16.2034L30.6016 19.6418H27.6133L33.9415 10.5071L27.9649 1.7782H31.0557L33.1945 4.93624C33.3922 5.26828 33.7511 5.80692 34.2638 6.54478C34.4616 6.86206 34.7106 7.24575 34.9963 7.68846C35.2892 8.13118 35.4504 8.38205 35.4797 8.42632C35.6481 8.16069 36.4245 6.98749 37.8235 4.91411L39.9915 1.7782H42.9579Z" fill="black"/>
<path d="M46.4219 24.5634H44.1074C45.2207 22.5933 45.9971 20.6675 46.4512 18.7933C46.9127 16.9044 47.147 14.7351 47.147 12.2928C47.147 9.79879 46.9127 7.60734 46.4512 5.71842C45.9825 3.84425 45.2061 1.94057 44.1074 0H46.4219C48.6485 3.39416 49.7618 7.49666 49.7618 12.2928C49.7545 17.0298 48.6412 21.1176 46.4219 24.5634Z" fill="black"/>
</svg>
