<?xml version="1.0" encoding="utf-8"?>
<!-- Generator: Adobe Illustrator 25.4.1, SVG Export Plug-In . SVG Version: 6.00 Build 0)  -->
<svg version="1.1" id="Capa_1" xmlns="http://www.w3.org/2000/svg" xmlns:xlink="http://www.w3.org/1999/xlink" x="0px" y="0px"
	 viewBox="0 0 457.23 109.6" style="enable-background:new 0 0 457.23 109.6;" xml:space="preserve">
<style type="text/css">
	.st0{fill:#FFFFFF;}
</style>
<g>
	<g>
		<g>
			<polygon class="st0" points="78.8,37.8 71.05,37.8 71.05,71.8 99.58,71.8 99.58,65.23 78.8,65.23 			"/>
			<path class="st0" d="M128.78,37.8h-9.93l-14.93,34h8.05l3.18-7.24h17.32l3.18,7.24h8.05L128.78,37.8z M118.04,57.99l5.78-13.16
				l5.78,13.16H118.04z"/>
			<path class="st0" d="M207.99,54.8c1.6-0.31,3.09-1.12,4.21-2.34l13.56-14.66h-10.5l-15.72,17l15.68,16.95l0.04,0.04h10.5
				l-13.56-14.66C211.07,55.92,209.59,55.11,207.99,54.8z"/>
			<rect x="189.87" y="37.8" class="st0" width="7.75" height="34"/>
			<path class="st0" d="M64.03,47.52c0-6.54-4.12-9.72-12.6-9.72H30.82v34h20.61c8.48,0,12.6-3.18,12.6-9.72
				c0-3.35-1.18-5.8-3.49-7.28C62.85,53.32,64.03,50.87,64.03,47.52z M56.21,61.66c0,2.47-1.51,3.58-4.9,3.58H38.57v-7.15h12.75
				C54.7,58.08,56.21,59.19,56.21,61.66z M51.32,51.52H38.57v-7.15h12.75c3.39,0,4.9,1.1,4.9,3.57v0
				C56.21,50.42,54.7,51.52,51.32,51.52z"/>
			<path class="st0" d="M175.16,58.68c-1.15,4.58-4.6,6.91-10.28,6.91c-7.12,0-10.72-3.6-10.72-10.72v-0.14
				c0-7.11,3.61-10.72,10.72-10.72c5.68,0,9.13,2.33,10.28,6.91h8.08c-1.42-8.81-7.93-13.67-18.36-13.67
				c-11.87,0-18.69,6.37-18.69,17.47v0.14c0,11.1,6.81,17.47,18.69,17.47c10.43,0,16.94-4.85,18.36-13.67H175.16z"/>
		</g>
		<g>
			<path class="st0" d="M352.44,37.8h-9.93l-14.93,34h8.05l3.18-7.24h17.32l3.18,7.24h8.05L352.44,37.8z M341.7,57.99l5.78-13.16
				l5.78,13.16H341.7z"/>
			<polygon class="st0" points="398.37,61.02 381.39,37.8 373.36,37.8 373.36,71.8 381.1,71.8 381.1,48.54 398.12,71.8 406.12,71.8 
				406.12,37.8 398.37,37.8 			"/>
			<polygon class="st0" points="320.89,37.8 314.11,61.38 307.9,37.91 307.87,37.8 299.9,37.8 293.66,61.38 286.89,37.8 
				278.85,37.8 288.59,71.7 288.62,71.8 297.73,71.8 303.89,48.55 310.02,71.7 310.04,71.8 319.15,71.8 328.92,37.8 			"/>
			<path class="st0" d="M268.39,52.29L268.39,52.29c-2.63-0.6-5.96-0.94-8.91-1.24c-2.03-0.21-3.94-0.4-5.31-0.65
				c-3.24-0.59-4.28-1.37-4.28-3.21c0-2.33,2.5-3.51,7.41-3.51c5.9,0,8.86,1.5,9.59,4.85h7.67l0-0.01c-0.8-7.58-6.36-11.26-17-11.26
				c-9.99,0-15.49,3.77-15.49,10.64c0,4.77,2.31,7.55,7.26,8.73c2.68,0.63,6.05,0.96,9.02,1.26c1.93,0.19,3.74,0.37,5.05,0.61
				c3.29,0.61,4.35,1.42,4.35,3.32c0,2.81-2.72,4.12-8.55,4.12c-6.45,0-9.79-1.8-10.51-5.67h-7.68l0,0.01
				c0.73,8.12,6.58,12.07,17.86,12.07c10.74,0,16.66-4.01,16.66-11.3C275.54,56.26,273.2,53.4,268.39,52.29z"/>
		</g>
		<g>
			<path class="st0" d="M416.63,40.04c0.06,0.73,0.35,1.19,0.88,1.38c-0.73,0.31-1.09,0.9-1.09,1.77c0,0.67,0.23,1.18,0.69,1.54
				c0.46,0.36,1.1,0.54,1.93,0.54h3.18V37.8h-1.29v3h-2.03c-0.35,0-0.6-0.08-0.75-0.23c-0.15-0.16-0.24-0.44-0.28-0.85l-0.06-0.77
				c-0.02-0.53-0.12-0.91-0.29-1.15h-1.32c0.22,0.33,0.34,0.72,0.35,1.15L416.63,40.04z M418.92,41.98h2v2.12h-1.88
				c-0.86,0-1.29-0.35-1.29-1.06C417.75,42.33,418.14,41.98,418.92,41.98z"/>
			<path class="st0" d="M425.26,45.28c0.72-1.1,1.15-2.41,1.15-3.83c0-1.34-0.4-2.59-1.06-3.65h-1.68c0.85,0.98,1.38,2.25,1.38,3.65
				c0,1.48-0.59,2.82-1.53,3.83H425.26z"/>
			<path class="st0" d="M413.61,45.28h1.73c-0.94-1.01-1.53-2.34-1.53-3.83c0-1.4,0.53-2.66,1.38-3.65h-1.68
				c-0.66,1.06-1.06,2.31-1.06,3.65C412.46,42.87,412.89,44.18,413.61,45.28z"/>
		</g>
	</g>
</g>
</svg>
