<?xml version="1.0" encoding="utf-8"?>
<!-- Generator: Adobe Illustrator 25.4.1, SVG Export Plug-In . SVG Version: 6.00 Build 0)  -->
<svg version="1.1" id="Capa_1" xmlns="http://www.w3.org/2000/svg" xmlns:xlink="http://www.w3.org/1999/xlink" x="0px" y="0px"
	 viewBox="0 0 257.4 165.3" style="enable-background:new 0 0 257.4 165.3;" xml:space="preserve">
<style type="text/css">
	.st0{fill:#FFFFFF;}
</style>
<g>
	<g>
		<g>
			<path class="st0" d="M14.6,160.6v4.5h-2.8v-4.2c0-1.8-0.9-2.6-2.7-2.6H2.8v6.8H0v-15.7h9c3.2,0,5.5,0.8,5.5,4.1
				c0,1.9-0.8,3-2.1,3.5C13.8,157.4,14.6,158.6,14.6,160.6z M11.7,153.8c0-1.7-1.1-2-2.9-2h-6v4H9C10.7,155.8,11.7,155.4,11.7,153.8
				z"/>
			<path class="st0" d="M40,162.5v2.5H26.8v-15.7H40v2.5H29.5v3.9h9.9v2.5h-9.9v4.3L40,162.5L40,162.5z"/>
			<path class="st0" d="M63.6,161.3h-8.4l-1.7,3.8h-2.9l7.2-15.7H61l7.2,15.7h-3L63.6,161.3z M62.5,158.9l-3.1-7.1l-3.2,7.1H62.5z"
				/>
			<path class="st0" d="M82.2,149.4v13.2h10v2.5H79.4v-15.7L82.2,149.4L82.2,149.4z"/>
			<path class="st0" d="M131.9,162.5v2.5h-13.2v-15.7h13.2v2.5h-10.4v3.9h9.9v2.5h-9.9v4.3L131.9,162.5L131.9,162.5z"/>
			<path class="st0" d="M142.9,159.4h2.8c0.2,2.5,2.1,3.5,5.4,3.5c3.1,0,4.5-0.8,4.5-2.4c0-1.1-0.6-1.5-2.1-1.9
				c-1.6-0.3-4.6-0.4-6.7-0.9c-2.1-0.5-3.3-1.6-3.3-3.9c0-3.1,2.5-4.7,6.9-4.7c4.8,0,7.4,1.8,7.7,5.6h-2.8c-0.2-2.2-1.9-3.1-5-3.1
				c-2.6,0-3.9,0.7-3.9,2.1c0,1,0.5,1.5,2.1,1.8c1.6,0.3,4.7,0.4,6.8,0.9c2,0.5,3.2,1.6,3.2,3.9c0,3.4-2.8,5.1-7.4,5.1
				C145.9,165.3,143.1,163.6,142.9,159.4z"/>
			<path class="st0" d="M168.5,151.8v-2.5h15.9v2.5h-6.6V165h-2.8v-13.2H168.5z"/>
			<path class="st0" d="M204.7,161.3h-8.4l-1.7,3.8h-2.9l7.2-15.7h3.3l7.2,15.7h-3L204.7,161.3z M203.6,158.9l-3.1-7.1l-3.1,7.1
				H203.6z"/>
			<path class="st0" d="M216.6,151.8v-2.5h15.9v2.5H226V165h-2.8v-13.2H216.6z"/>
			<path class="st0" d="M257.4,162.5v2.5h-13.2v-15.7h13.2v2.5h-10.4v3.9h9.9v2.5h-9.9v4.3L257.4,162.5L257.4,162.5z"/>
		</g>
	</g>
	<g>
		<path class="st0" d="M148.2,57.1v60.3h31.1V0C160,12.5,148.2,34.1,148.2,57.1z"/>
		<path class="st0" d="M113.1,83.9v33.5h31.1V26.7C125,39.2,113.1,60.8,113.1,83.9z"/>
		<path class="st0" d="M78.1,110.6v6.8h31.1V53.5C89.9,66,78.1,87.6,78.1,110.6z"/>
	</g>
</g>
</svg>
