<svg width="98" height="68" viewBox="0 0 98 68" fill="none" xmlns="http://www.w3.org/2000/svg">
<g id="Group 2">
<g id="Group">
<path id="Vector" d="M65.8968 42.1162H32.344L30.7104 45.384H67.535L65.8968 42.1162Z" fill="black"/>
<path id="Vector_2" d="M68.366 47.0485H29.8751L28.2368 50.321H70.0042L68.366 47.0485Z" fill="black"/>
<path id="Vector_3" d="M65.5775 14.1451C65.5775 9.84116 62.0711 6.3436 57.7667 6.3436C53.9223 6.3436 50.6083 4.04628 49.1203 0.755005C47.6323 4.04628 44.3183 6.3436 40.4739 6.3436C36.1648 6.3436 32.6631 9.84585 32.6631 14.1451V40.4519H65.5775V14.1451ZM45.7359 33.0582C44.7267 33.0582 43.7504 32.9035 42.835 32.6128C46.7592 31.3798 49.6085 27.7181 49.6085 23.3954C49.6085 19.068 46.7592 15.4063 42.835 14.178C43.7504 13.892 44.7267 13.7326 45.7359 13.7326C51.0777 13.7326 55.4103 18.06 55.4103 23.3954C55.4103 28.7308 51.0777 33.0582 45.7359 33.0582Z" fill="black"/>
</g>
<g id="Group_2">
<g id="Group_3">
<path id="Vector_4" d="M2.02027 61.6276V64.0421H5.41403V61.6276H6.45145V67.5068H5.41403V64.9798H2.02027V67.5068H0.98291V61.6276H2.02027Z" fill="black"/>
<path id="Vector_5" d="M10.9014 64.5765V64.5578C10.9014 62.7246 11.9481 61.5338 14.0463 61.5338C16.1446 61.5338 17.1914 62.7293 17.1914 64.5578V64.5765C17.1914 66.4097 16.1493 67.6006 14.0463 67.6006C11.9481 67.6006 10.9014 66.4097 10.9014 64.5765ZM16.1211 64.5765V64.5578C16.1211 63.3716 15.5907 62.4621 14.0416 62.4621C12.4973 62.4621 11.9669 63.3716 11.9669 64.5578V64.5765C11.9669 65.7627 12.4973 66.6723 14.0416 66.6723C15.5907 66.6723 16.1211 65.7627 16.1211 64.5765Z" fill="black"/>
<path id="Vector_6" d="M21.3315 65.3829H22.3689C22.4346 66.3159 23.1622 66.691 24.392 66.691C25.5327 66.691 26.0866 66.4097 26.0866 65.8049C26.0866 65.4064 25.8801 65.2282 25.2792 65.1063C24.6784 64.9891 23.5425 64.961 22.7679 64.7781C21.9934 64.6 21.5428 64.1874 21.5428 63.3107C21.5428 62.1526 22.491 61.5338 24.1151 61.5338C25.9223 61.5338 26.9081 62.1948 26.9879 63.6154H25.9504C25.8753 62.7762 25.2323 62.448 24.0775 62.448C23.1106 62.448 22.6036 62.7106 22.6036 63.2169C22.6036 63.592 22.7867 63.7701 23.4016 63.892C24.0165 64.0139 25.1807 64.0561 25.9364 64.2296C26.6874 64.4031 27.1474 64.8203 27.1474 65.6971C27.1474 66.977 26.0866 67.6006 24.3545 67.6006C22.4769 67.6006 21.402 66.9489 21.3315 65.3829Z" fill="black"/>
<path id="Vector_7" d="M37.1081 63.3951V63.4045C37.1081 64.7829 36.2022 65.1908 34.9348 65.1908H32.5784V67.5115H31.541V61.6322H34.9489C36.2069 61.6276 37.1081 62.0214 37.1081 63.3951ZM36.0379 63.4045C36.0379 62.6965 35.6061 62.5324 34.9113 62.5324H32.5831V64.2906H34.9113C35.6061 64.2906 36.0379 64.1218 36.0379 63.4138V63.4045Z" fill="black"/>
<path id="Vector_8" d="M42.5486 61.6276V67.5068H41.5112V61.6276H42.5486Z" fill="black"/>
<path id="Vector_9" d="M46.9043 62.5606V61.6276H52.8657V62.5606H50.4061V67.5068H49.364V62.5606H46.9043Z" fill="black"/>
<path id="Vector_10" d="M60.461 66.1003H57.3114L56.6871 67.5068H55.6074L58.2971 61.6276H59.5269L62.2166 67.5068H61.0901L60.461 66.1003ZM60.062 65.2001L58.8885 62.5418L57.7103 65.2001H60.062Z" fill="black"/>
<path id="Vector_11" d="M67.4641 61.6276V66.5692H71.2287V67.5068H66.4268V61.6276H67.4641Z" fill="black"/>
<path id="Vector_12" d="M76.6229 61.6276V67.5068H75.5854V61.6276H76.6229Z" fill="black"/>
<path id="Vector_13" d="M80.9785 62.5606V61.6276H86.9399V62.5606H84.4802V67.5068H83.4382V62.5606H80.9785Z" fill="black"/>
<path id="Vector_14" d="M97.2571 61.6276L94.5486 65.3267V67.5068H93.5113V65.3267L90.8169 61.6276H92.0608L94.0558 64.4219L96.0507 61.6276H97.2571Z" fill="black"/>
</g>
</g>
</g>
</svg>
