<svg width="92" height="68" viewBox="0 0 92 68" fill="none" xmlns="http://www.w3.org/2000/svg">
<g id="Group 4">
<g id="Group">
<path id="Vector" d="M57.727 16.6907C57.7176 16.6907 57.7129 16.6907 57.7035 16.6907C52.3101 16.6954 47.7053 20.3618 46.4989 25.6128C46.4144 25.9926 46.0764 26.2598 45.6868 26.2598C45.2972 26.2598 44.9593 25.9926 44.8748 25.6128C43.6684 20.3618 39.0636 16.6954 33.6749 16.6907C33.6655 16.6907 33.6608 16.6907 33.6514 16.6907H0C1.89169 20.6571 5.92854 23.2498 10.3879 23.2498H22.0196C22.4796 23.2498 22.8552 23.6249 22.8552 24.0844C22.8552 24.5438 22.4796 24.9189 22.0196 24.9189H11.6365C13.5281 28.8853 17.565 31.478 22.0196 31.478H33.6514C34.1114 31.478 34.4869 31.8531 34.4869 32.3126C34.4869 32.772 34.1114 33.1471 33.6514 33.1471H23.2729C25.1646 37.1135 29.2015 39.7062 33.6561 39.7062C35.8059 39.7062 37.9136 39.0967 39.7489 37.948C40.0728 37.7464 40.4953 37.7886 40.7722 38.0559C41.0492 38.3231 41.1055 38.7404 40.913 39.0733L34.7826 49.5753H56.5816L50.4513 39.0733C50.2588 38.7404 50.3151 38.3231 50.5921 38.0559C50.869 37.7886 51.2915 37.7464 51.6154 37.948C53.4554 39.0967 55.5583 39.7062 57.7082 39.7062C62.1675 39.7062 66.1997 37.1135 68.0914 33.1471H57.7129C57.2529 33.1471 56.8774 32.772 56.8774 32.3126C56.8774 31.8531 57.2529 31.478 57.7129 31.478H69.34C73.804 31.478 77.8361 28.8853 79.7325 24.9189H69.3494C68.8894 24.9189 68.5138 24.5438 68.5138 24.0844C68.5138 23.6249 68.8894 23.2498 69.3494 23.2498H80.9811C85.4404 23.2498 89.4773 20.6571 91.369 16.6907H57.727Z" fill="#030303"/>
<path id="Vector_2" d="M42.608 17.0471C44.3072 18.7443 47.0673 18.7443 48.7712 17.0471C48.7712 17.0471 51.8505 13.9715 48.7712 7.8156C45.6872 1.66439 45.6872 0 45.6872 0C45.6872 0 45.6872 1.66439 42.608 7.8156C39.524 13.9715 42.608 17.0471 42.608 17.0471Z" fill="#030303"/>
</g>
<g id="Group_2">
<g id="Group_3">
<path id="Vector_3" d="M30.1593 66.1003H27.0096L26.3853 67.5068H25.3057L27.9953 61.6276H29.2252L31.9148 67.5068H30.7883L30.1593 66.1003ZM29.765 65.2001L28.5915 62.5418L27.4133 65.2001H29.765Z" fill="#030303"/>
<path id="Vector_4" d="M41.6926 63.3951V63.4045C41.6926 64.7829 40.7866 65.1908 39.5193 65.1908H37.1629V67.5115H36.1255V61.6322H39.5333C40.7913 61.6276 41.6926 62.0214 41.6926 63.3951ZM40.6224 63.4045C40.6224 62.6965 40.1905 62.5324 39.4958 62.5324H37.1676V64.2906H39.4958C40.1905 64.2906 40.6224 64.1218 40.6224 63.4138V63.4045Z" fill="#030303"/>
<path id="Vector_5" d="M47.1331 61.6276V67.5068H46.0957V61.6276H47.1331Z" fill="#030303"/>
<path id="Vector_6" d="M51.4844 62.5606V61.6276H57.4458V62.5606H54.9861V67.5068H53.944V62.5606H51.4844Z" fill="#030303"/>
<path id="Vector_7" d="M65.0406 66.1003H61.8909L61.2666 67.5068H60.187L62.8767 61.6276H64.1065L66.7962 67.5068H65.6696L65.0406 66.1003ZM64.6463 65.2001L63.4728 62.5418L62.2946 65.2001H64.6463Z" fill="#030303"/>
<path id="Vector_8" d="M72.0486 61.6276V66.5692H75.8132V67.5068H71.0112V61.6276H72.0486Z" fill="#030303"/>
<path id="Vector_9" d="M20.6398 65.2001C20.5177 66.0675 19.931 66.6723 18.6871 66.6723C17.1897 66.6723 16.6264 65.7862 16.6264 64.5719V64.5484C16.6264 63.3435 17.1897 62.4574 18.6964 62.4574C19.9169 62.4574 20.5177 63.0622 20.6398 63.9342H21.6912C21.541 62.4246 20.4802 61.5338 18.6871 61.5338C16.6029 61.5338 15.5562 62.7246 15.5562 64.5578V64.5812C15.5562 66.405 16.5982 67.6053 18.6824 67.6053C20.4802 67.6053 21.5504 66.7285 21.6865 65.2048H20.6398V65.2001Z" fill="#030303"/>
</g>
</g>
</g>
</svg>
