<svg width="51" height="61" viewBox="0 0 51 61" fill="none" xmlns="http://www.w3.org/2000/svg">
<g id="Group">
<path id="Vector" d="M45.9853 50.5039H5.01559L3.021 54.4941H47.9856L45.9853 50.5039Z" fill="black"/>
<path id="Vector_2" d="M48.9997 56.5264H2.0004L0 60.5223H51L48.9997 56.5264Z" fill="black"/>
<path id="Vector_3" d="M45.5954 16.35C45.5954 11.0946 41.3139 6.82395 36.058 6.82395C31.3638 6.82395 27.3173 4.0188 25.5004 0C23.6834 4.0188 19.6369 6.82395 14.9427 6.82395C9.68107 6.82395 5.40527 11.1004 5.40527 16.35V48.4718H45.5954V16.35ZM21.3678 39.4438C20.1355 39.4438 18.9434 39.2549 17.8257 38.8999C22.6174 37.3943 26.0964 32.9233 26.0964 27.645C26.0964 22.361 22.6174 17.89 17.8257 16.3901C18.9434 16.0409 20.1355 15.8462 21.3678 15.8462C27.8904 15.8462 33.1807 21.1302 33.1807 27.645C33.1807 34.1598 27.8904 39.4438 21.3678 39.4438Z" fill="black"/>
</g>
</svg>
