<svg width="98" height="68" viewBox="0 0 98 68" fill="none" xmlns="http://www.w3.org/2000/svg">
<g id="Group 3">
<g id="Group">
<path id="Vector" d="M57.5229 24.1266V49.566H70.6756V0C62.5268 5.28854 57.5229 14.4028 57.5229 24.1266Z" fill="black"/>
<path id="Vector_2" d="M42.7041 35.4116V49.566H55.8567V11.285C47.7079 16.5736 42.7041 25.6832 42.7041 35.4116Z" fill="black"/>
<path id="Vector_3" d="M27.8848 46.6966V49.5659H41.0374V22.57C32.8886 27.8585 27.8848 36.9681 27.8848 46.6966Z" fill="black"/>
</g>
<g id="Group_2">
<g id="Group_3">
<path id="Vector_4" d="M6.47961 65.8378V67.5068H5.44222V65.9222C5.44222 65.2376 5.11365 64.961 4.42363 64.961H2.025V67.5068H0.98291V61.6276H4.35321C5.54079 61.6276 6.41859 61.9417 6.41859 63.1654C6.41859 63.8639 6.12287 64.2718 5.63469 64.4641C6.1792 64.6422 6.47961 65.097 6.47961 65.8378ZM5.37183 63.306C5.37183 62.6637 4.95405 62.5512 4.26872 62.5512H2.02967V64.0608H4.37667C4.99628 64.0608 5.37183 63.9061 5.37183 63.306Z" fill="black"/>
<path id="Vector_5" d="M16.0039 66.5739V67.5115H11.0376V61.6323H15.9804V62.5699H12.0656V64.0515H15.802V64.9798H12.0703V66.5785H16.0039V66.5739Z" fill="black"/>
<path id="Vector_6" d="M24.838 66.1003H21.6883L21.064 67.5068H19.9844L22.6741 61.6276H23.9039L26.5936 67.5068H25.467L24.838 66.1003ZM24.4437 65.2001L23.2702 62.5418L22.092 65.2001H24.4437Z" fill="black"/>
<path id="Vector_7" d="M31.846 61.6276V66.5692H35.6106V67.5068H30.8086V61.6276H31.846Z" fill="black"/>
<path id="Vector_8" d="M50.4721 66.5739V67.5115H45.5059V61.6323H50.4486V62.5699H46.5338V64.0515H50.2656V64.9798H46.5338V66.5785H50.4721V66.5739Z" fill="black"/>
<path id="Vector_9" d="M54.6118 65.3829H55.6492C55.7149 66.3159 56.4425 66.691 57.6723 66.691C58.813 66.691 59.3669 66.4097 59.3669 65.8049C59.3669 65.4064 59.1603 65.2282 58.5595 65.1063C57.9587 64.9891 56.8227 64.961 56.0482 64.7781C55.2737 64.6 54.8231 64.1874 54.8231 63.3107C54.8231 62.1526 55.7712 61.5338 57.3954 61.5338C59.2026 61.5338 60.1883 62.1948 60.2681 63.6154H59.2307C59.1556 62.7762 58.5126 62.448 57.3578 62.448C56.3909 62.448 55.8839 62.7106 55.8839 63.2169C55.8839 63.592 56.067 63.7701 56.6819 63.892C57.2968 64.0139 58.4609 64.0561 59.2166 64.2296C59.9677 64.4031 60.4277 64.8203 60.4277 65.6971C60.4277 66.977 59.3669 67.6006 57.6348 67.6006C55.7572 67.6006 54.6822 66.9489 54.6118 65.3829Z" fill="black"/>
<path id="Vector_10" d="M64.2397 62.5606V61.6276H70.2011V62.5606H67.7415V67.5068H66.6994V62.5606H64.2397Z" fill="black"/>
<path id="Vector_11" d="M77.796 66.1003H74.6463L74.022 67.5068H72.9424L75.6321 61.6276H76.8619L79.5516 67.5068H78.425L77.796 66.1003ZM77.4017 65.2001L76.2282 62.5418L75.05 65.2001H77.4017Z" fill="black"/>
<path id="Vector_12" d="M82.2881 62.5606V61.6276H88.2495V62.5606H85.7898V67.5068H84.7477V62.5606H82.2881Z" fill="black"/>
<path id="Vector_13" d="M97.5717 66.5739V67.5115H92.6055V61.6323H97.5483V62.5699H93.6335V64.0515H97.3652V64.9798H93.6335V66.5785H97.5717V66.5739Z" fill="black"/>
</g>
</g>
</g>
</svg>
