<svg width="718" height="776" viewBox="0 0 718 776" fill="none" xmlns="http://www.w3.org/2000/svg">
<path d="M560.712 162.212C561.164 169.823 560.502 177.53 558.688 185.164C557.009 192.226 554.39 198.917 550.973 205.126L647.522 300.288C647.522 300.288 666.948 268.115 629.632 219.918C619.163 206.395 611.644 190.868 607.324 174.4C607.166 173.799 607 173.176 606.834 172.56C604.893 172.701 602.958 172.768 601.016 172.768C586.912 172.761 572.996 169.111 560.712 162.212Z" fill="black"/>
<path d="M659.459 405.568L411.877 161.522C411.877 161.522 411.877 161.522 411.869 161.522C396.681 146.552 399.134 120.662 419.245 109.223C421.661 107.851 424.273 106.805 426.975 106.145C439.009 103.2 450.969 106.56 459.293 114.772L536.364 190.735C537.741 187.545 538.863 184.222 539.683 180.772C543.394 165.187 540.782 149.119 532.345 135.462C529.568 130.966 530.478 124.965 534.904 122.02C539.525 118.934 545.764 120.284 548.677 124.913C560.321 143.421 580.514 153.577 601.136 153.525C581.861 94.9357 534.467 0.145325 435.585 0.145325C398.186 0.145325 363.03 14.4996 336.59 40.5599C290.249 86.2267 283.393 156.144 315.719 209.162L315.508 209.295C332.269 234.97 354.367 256.846 380.348 273.478L425.733 302.528C461.145 325.191 485.478 360.086 494.254 400.79C503.029 441.494 495.202 483.125 472.209 518.028C449.215 552.924 413.811 576.914 372.513 585.564C361.472 587.878 350.363 589.021 339.329 589.021C309.111 589.021 279.502 580.438 253.565 563.836L106.431 469.669C109.705 511.797 132.691 550.676 168.983 573.91L217.077 604.696C217.378 604.888 217.657 605.089 217.928 605.304C221.751 608.368 222.692 613.835 219.952 617.997C218.086 620.83 214.955 622.381 211.756 622.381C209.935 622.381 208.091 621.876 206.45 620.83L158.356 590.045C155.112 587.967 151.974 585.772 148.918 583.479C171.678 692.164 289.798 775.241 431.671 775.241C589.779 775.241 718.406 672.068 718.406 545.261C718.406 492.799 696.466 444.306 659.459 405.568Z" fill="black"/>
<path d="M159.523 242.225L67.2111 183.139C70.4851 225.267 93.4708 264.146 129.763 287.38L237.361 356.251C241.885 359.144 243.164 365.101 240.229 369.559C240.018 369.886 239.785 370.182 239.536 370.472C239.461 370.561 239.378 370.642 239.303 370.731C239.122 370.932 238.942 371.117 238.746 371.295C238.656 371.384 238.566 371.466 238.468 371.547C238.264 371.725 238.046 371.896 237.828 372.052C237.745 372.111 237.67 372.171 237.587 372.23C237.286 372.438 236.977 372.623 236.661 372.794C236.594 372.831 236.518 372.86 236.451 372.89C236.195 373.016 235.939 373.135 235.668 373.239C235.547 373.283 235.435 373.328 235.314 373.365C235.081 373.446 234.855 373.521 234.622 373.58C234.501 373.61 234.373 373.647 234.253 373.676C233.982 373.736 233.711 373.788 233.432 373.825C233.35 373.84 233.267 373.854 233.184 373.862C232.83 373.906 232.477 373.921 232.123 373.929C232.093 373.929 232.063 373.936 232.033 373.936C231.965 373.936 231.905 373.921 231.837 373.921C231.513 373.914 231.19 373.892 230.866 373.854C230.753 373.84 230.648 373.832 230.535 373.81C230.136 373.751 229.745 373.669 229.353 373.558C229.293 373.543 229.24 373.521 229.18 373.498C228.834 373.395 228.495 373.268 228.164 373.127C228.059 373.083 227.953 373.038 227.855 372.987C227.472 372.809 227.095 372.608 226.726 372.378L134.415 313.292C137.689 355.42 160.674 394.299 196.974 417.533L304.572 486.404C309.096 489.297 310.375 495.254 307.44 499.712C305.573 502.546 302.442 504.097 299.244 504.097C297.422 504.097 295.578 503.592 293.938 502.546L201.641 443.467C204.922 485.596 227.893 524.475 264.186 547.701C295.225 567.567 332.247 574.333 368.442 566.744C404.636 559.162 435.668 538.139 455.824 507.546C475.98 476.961 482.844 440.463 475.144 404.789C467.452 369.114 446.122 338.529 415.091 318.663L0 52.9781C3.274 95.1063 26.2597 133.985 62.5522 157.219L67.2713 160.239L170.15 226.09C174.674 228.983 175.953 234.94 173.018 239.399C170.09 243.85 164.039 245.118 159.523 242.225Z" fill="black"/>
</svg>
