<svg width="92" height="49" viewBox="0 0 92 49" fill="none" xmlns="http://www.w3.org/2000/svg">
<g id="Group">
<path id="Vector" d="M57.7862 16.4968C57.7768 16.4968 57.7721 16.4968 57.7627 16.4968C52.3637 16.5015 47.7542 20.1253 46.5466 25.3154C46.462 25.6907 46.1237 25.9549 45.7337 25.9549C45.3437 25.9549 45.0054 25.6907 44.9208 25.3154C43.7132 20.1253 39.1036 16.5015 33.7094 16.4968C33.7 16.4968 33.6953 16.4968 33.6859 16.4968H0C1.89363 20.4172 5.93462 22.9798 10.3985 22.9798H22.0422C22.5027 22.9798 22.8786 23.3505 22.8786 23.8047C22.8786 24.2588 22.5027 24.6295 22.0422 24.6295H11.6484C13.542 28.5499 17.583 31.1125 22.0422 31.1125H33.6859C34.1464 31.1125 34.5223 31.4832 34.5223 31.9374C34.5223 32.3915 34.1464 32.7622 33.6859 32.7622H23.2968C25.1904 36.6826 29.2314 39.2452 33.6906 39.2452C35.8427 39.2452 37.9524 38.6428 39.7897 37.5075C40.1139 37.3082 40.5368 37.3499 40.814 37.614C41.0913 37.8782 41.1476 38.2906 40.955 38.6196L34.8183 48.9998H56.6397L50.503 38.6196C50.3104 38.2906 50.3667 37.8782 50.644 37.614C50.9212 37.3499 51.3441 37.3082 51.6683 37.5075C53.5103 38.6428 55.6153 39.2452 57.7674 39.2452C62.2313 39.2452 66.2676 36.6826 68.1612 32.7622H57.7721C57.3116 32.7622 56.9357 32.3915 56.9357 31.9374C56.9357 31.4832 57.3116 31.1125 57.7721 31.1125H69.4111C73.8797 31.1125 77.916 28.5499 79.8143 24.6295H69.4205C68.96 24.6295 68.5841 24.2588 68.5841 23.8047C68.5841 23.3505 68.96 22.9798 69.4205 22.9798H81.0642C85.5281 22.9798 89.5691 20.4172 91.4627 16.4968H57.7862Z" fill="black"/>
<path id="Vector_2" d="M42.6514 16.8493C44.3523 18.5268 47.1152 18.5268 48.8209 16.8493C48.8209 16.8493 51.9033 13.8094 48.8209 7.7249C45.7338 1.64508 45.7338 0 45.7338 0C45.7338 0 45.7338 1.64508 42.6514 7.7249C39.5642 13.8094 42.6514 16.8493 42.6514 16.8493Z" fill="black"/>
</g>
</svg>
