<svg width="255" height="171" viewBox="0 0 255 171" fill="none" xmlns="http://www.w3.org/2000/svg">
<g id="Group 21">
<g id="Group">
<path id="Vector" d="M146.238 27.2475C146.223 27.2475 146.215 27.2475 146.2 27.2475C137.395 27.2552 129.878 33.2404 127.909 41.8126C127.771 42.4326 127.219 42.8689 126.583 42.8689C125.947 42.8689 125.395 42.4326 125.257 41.8126C123.288 33.2404 115.771 27.2552 106.974 27.2475C106.958 27.2475 106.951 27.2475 106.935 27.2475H52C55.0882 33.7226 61.6783 37.9551 68.958 37.9551H87.9467C88.6977 37.9551 89.3107 38.5674 89.3107 39.3175C89.3107 40.0676 88.6977 40.6799 87.9467 40.6799H70.9964C74.0845 47.155 80.6746 51.3875 87.9467 51.3875H106.935C107.686 51.3875 108.299 51.9998 108.299 52.7499C108.299 53.5 107.686 54.1123 106.935 54.1123H89.9927C93.0809 60.5874 99.671 64.8199 106.943 64.8199C110.453 64.8199 113.893 63.8249 116.89 61.9497C117.418 61.6206 118.108 61.6895 118.56 62.1258C119.012 62.562 119.104 63.2432 118.79 63.7866L108.782 80.9311H144.369L134.361 63.7866C134.047 63.2432 134.139 62.562 134.591 62.1258C135.043 61.6895 135.733 61.6206 136.261 61.9497C139.265 63.8249 142.698 64.8199 146.208 64.8199C153.488 64.8199 160.07 60.5874 163.158 54.1123H146.215C145.464 54.1123 144.851 53.5 144.851 52.7499C144.851 51.9998 145.464 51.3875 146.215 51.3875H165.196C172.484 51.3875 179.066 47.155 182.162 40.6799H165.212C164.461 40.6799 163.848 40.0676 163.848 39.3175C163.848 38.5674 164.461 37.9551 165.212 37.9551H184.201C191.48 37.9551 198.07 33.7226 201.159 27.2475H146.238Z" fill="white"/>
<path id="Vector_2" d="M121.556 27.8291C124.33 30.5998 128.836 30.5998 131.618 27.8291C131.618 27.8291 136.644 22.8083 131.618 12.7588C126.583 2.71709 126.583 0 126.583 0C126.583 0 126.583 2.71709 121.556 12.7588C116.522 22.8083 121.556 27.8291 121.556 27.8291Z" fill="white"/>
</g>
<g id="Group_2">
<g id="Group_3">
<path id="Vector_3" d="M61.6004 164.262H48.3141L45.6805 170.195H41.1263L52.4722 145.395H57.6601L69.006 170.195H64.2537L61.6004 164.262ZM59.9372 160.465L54.9869 149.251L50.0169 160.465H59.9372Z" fill="white"/>
<path id="Vector_4" d="M110.251 152.851V152.891C110.251 158.705 106.43 160.426 101.083 160.426H91.1433V170.216H86.7673V145.415H101.143C106.449 145.395 110.251 147.056 110.251 152.851ZM105.737 152.891C105.737 149.904 103.915 149.212 100.984 149.212H91.1631V156.629H100.984C103.915 156.629 105.737 155.917 105.737 152.93V152.891Z" fill="white"/>
<path id="Vector_5" d="M133.2 145.395V170.195H128.824V145.395H133.2Z" fill="white"/>
<path id="Vector_6" d="M151.556 149.33V145.395H176.703V149.33H166.327V170.195H161.931V149.33H151.556Z" fill="white"/>
<path id="Vector_7" d="M208.741 164.262H195.454L192.821 170.195H188.267L199.612 145.395H204.8L216.146 170.195H211.394L208.741 164.262ZM207.077 160.465L202.127 149.251L197.157 160.465H207.077Z" fill="white"/>
<path id="Vector_8" d="M238.303 145.395V166.24H254.184V170.195H233.927V145.395H238.303Z" fill="white"/>
<path id="Vector_9" d="M21.4443 160.466C20.9295 164.125 18.4544 166.676 13.2072 166.676C6.89071 166.676 4.5146 162.938 4.5146 157.816V157.717C4.5146 152.634 6.89071 148.896 13.2468 148.896C18.395 148.896 20.9295 151.447 21.4443 155.126H25.8797C25.2461 148.758 20.7711 145 13.2072 145C4.4156 145 0 150.023 0 157.756V157.855C0 165.549 4.39579 170.612 13.1874 170.612C20.7711 170.612 25.2857 166.913 25.8599 160.486H21.4443V160.466Z" fill="white"/>
</g>
</g>
</g>
</svg>
