<?xml version="1.0" standalone="no"?>
<!DOCTYPE svg PUBLIC "-//W3C//DTD SVG 20010904//EN"
 "http://www.w3.org/TR/2001/REC-SVG-20010904/DTD/svg10.dtd">
<svg version="1.0" xmlns="http://www.w3.org/2000/svg"
 width="2084.000000pt" height="2084.000000pt" viewBox="0 0 2084.000000 2084.000000"
 preserveAspectRatio="xMidYMid meet">
<metadata>
Created by potrace 1.14, written by Peter Selinger 2001-2017
</metadata>
<g transform="translate(0.000000,2084.000000) scale(0.100000,-0.100000)"
fill="#000000" stroke="none">
<path d="M11675 19504 c-630 -38 -1167 -219 -1670 -562 -908 -619 -1441 -1672
-1402 -2767 21 -561 156 -1029 448 -1555 172 -309 603 -809 959 -1112 258
-220 336 -274 1171 -816 289 -188 577 -381 640 -428 773 -587 1267 -1428 1408
-2399 65 -439 46 -886 -55 -1324 -186 -805 -641 -1527 -1289 -2043 -808 -645
-1881 -917 -2905 -737 -394 69 -838 231 -1185 432 -51 29 -2380 1538 -3544
2296 l-24 15 7 -74 c82 -875 556 -1722 1259 -2246 55 -41 367 -248 696 -460
328 -213 609 -399 624 -413 59 -54 85 -140 66 -218 -17 -67 -95 -145 -162
-162 -52 -13 -105 -7 -151 16 -44 23 -1212 783 -1285 836 -35 26 -66 46 -68
44 -14 -14 107 -440 182 -642 752 -2025 2884 -3511 5440 -3794 341 -38 494
-46 905 -46 410 0 563 8 905 46 1521 168 2913 762 3975 1696 163 144 458 445
589 603 639 765 1012 1601 1128 2530 15 117 18 217 18 520 -1 330 -3 394 -23
536 -130 959 -503 1771 -1177 2564 -54 63 -1418 1436 -3030 3050 -2896 2899
-2932 2936 -2972 3015 -63 123 -84 203 -90 335 -4 95 -2 130 16 205 78 323
332 551 664 595 105 14 223 2 337 -36 167 -56 136 -28 1146 -1037 812 -810
933 -927 942 -911 22 42 71 215 86 303 10 57 16 153 16 241 0 249 -40 413
-157 648 -45 93 -78 171 -81 197 -15 136 116 262 250 241 76 -12 122 -48 190
-149 247 -362 648 -591 1091 -623 l97 -7 -51 149 c-369 1075 -935 2008 -1560
2570 -566 509 -1172 789 -1869 863 -107 11 -414 20 -505 15z"/>
<path d="M1770 18251 c0 -11 7 -73 15 -138 109 -856 545 -1617 1227 -2145 59
-46 693 -463 1409 -928 716 -465 1313 -858 1327 -875 63 -74 69 -176 16 -261
-56 -92 -183 -130 -279 -85 -22 11 -517 330 -1100 709 -583 379 -1061 689
-1062 688 -7 -7 31 -281 57 -406 90 -440 283 -875 548 -1240 183 -251 416
-487 668 -678 45 -33 662 -438 1370 -898 709 -460 1302 -848 1318 -863 61 -56
86 -165 54 -241 -52 -122 -196 -177 -309 -116 -24 13 -516 330 -1092 705 -577
374 -1051 681 -1054 681 -10 0 6 -160 27 -286 133 -774 545 -1477 1148 -1962
134 -107 115 -94 1530 -1013 669 -435 1234 -807 1255 -827 137 -133 35 -371
-160 -372 -28 0 -63 4 -77 9 -13 6 -507 323 -1096 706 -590 383 -1075 694
-1078 691 -15 -16 38 -346 88 -546 154 -607 516 -1201 979 -1604 458 -399 999
-658 1576 -755 353 -59 764 -56 1122 9 881 159 1661 691 2135 1454 424 682
575 1478 432 2266 -146 801 -576 1498 -1219 1980 -71 53 -2288 1498 -4925
3210 -2637 1712 -4807 3122 -4822 3132 -28 19 -28 19 -28 -1z"/>
<path d="M14722 15577 c-2 -271 -60 -524 -180 -780 l-46 -98 1115 -1115 c931
-932 1116 -1112 1125 -1099 21 28 73 199 89 289 19 114 19 350 0 481 -50 330
-210 690 -457 1028 -190 259 -302 442 -393 645 -54 119 -136 348 -169 472
l-18 65 -156 1 c-182 0 -322 20 -492 69 -118 34 -303 108 -376 151 l-41 24 -1
-133z"/>
</g>
</svg>
