<svg width="69" height="81" viewBox="0 0 69 81" fill="none" xmlns="http://www.w3.org/2000/svg">
<path d="M61.544 67.5916H6.71242L4.04297 72.9319H64.2211L61.544 67.5916Z" fill="white"/>
<path d="M65.5785 75.6521H2.67723L0 81H68.2556L65.5785 75.6521Z" fill="white"/>
<path d="M61.0221 21.882C61.0221 14.8485 55.292 9.1328 48.2578 9.1328C41.9753 9.1328 36.5597 5.37855 34.1281 0C31.6964 5.37855 26.2807 9.1328 19.9983 9.1328C12.9564 9.1328 7.23389 14.8561 7.23389 21.882V64.872H61.0221V21.882ZM28.5973 52.7894C26.948 52.7894 25.3526 52.5366 23.8567 52.0616C30.2696 50.0465 34.9258 44.0627 34.9258 36.9986C34.9258 29.9268 30.2696 23.943 23.8567 21.9356C25.3526 21.4682 26.948 21.2077 28.5973 21.2077C37.3268 21.2077 44.407 28.2795 44.407 36.9986C44.407 45.7177 37.3268 52.7894 28.5973 52.7894Z" fill="white"/>
</svg>
