<svg width="398" height="25" viewBox="0 0 398 25" fill="none" xmlns="http://www.w3.org/2000/svg">
<path d="M4.28027 0.385895V10.3356H18.2834V0.385895H22.5639V24.6131H18.2834V14.1996H4.28027V24.6131H0V0.385895H4.28027Z" fill="white"/>
<path d="M40.9248 12.5386V12.4614C40.9248 4.90729 45.2438 0 53.9013 0C62.5589 0 66.8781 4.92661 66.8781 12.4614V12.5386C66.8781 20.0927 62.5782 25 53.9013 25C45.2438 25 40.9248 20.0927 40.9248 12.5386ZM62.4621 12.5386V12.4614C62.4621 7.57344 60.2734 3.82537 53.8819 3.82537C47.5098 3.82537 45.3214 7.57344 45.3214 12.4614V12.5386C45.3214 17.4266 47.5098 21.1747 53.8819 21.1747C60.2734 21.1747 62.4621 17.4266 62.4621 12.5386Z" fill="white"/>
<path d="M83.9604 15.8617H88.2407C88.5119 19.7063 91.514 21.2519 96.5885 21.2519C101.295 21.2519 103.58 20.0927 103.58 17.6005C103.58 15.9583 102.728 15.2241 100.249 14.7218C97.77 14.2388 93.0829 14.1229 89.8872 13.3694C86.6915 12.6352 84.8322 10.9351 84.8322 7.32227C84.8322 2.55025 88.7445 0 95.4458 0C102.903 0 106.97 2.72412 107.299 8.57806H103.019C102.709 5.11979 100.055 3.76741 95.2907 3.76741C91.3009 3.76741 89.2091 4.84933 89.2091 6.93588C89.2091 8.48147 89.9646 9.21561 92.5018 9.71792C95.0391 10.2202 99.8424 10.3941 102.961 11.109C106.06 11.8238 107.958 13.5433 107.958 17.1561C107.958 22.4305 103.58 25 96.4336 25C88.6864 25 84.251 22.3145 83.9604 15.8617Z" fill="white"/>
<path d="M149.057 7.67003V7.70868C149.057 13.3887 145.319 15.0696 140.09 15.0696H130.367V24.6329H126.086V0.405749H140.148C145.338 0.386429 149.057 2.00929 149.057 7.67003ZM144.641 7.70868C144.641 4.79137 142.859 4.11517 139.993 4.11517H130.386V11.3601H139.993C142.859 11.3601 144.641 10.6646 144.641 7.74733V7.70868Z" fill="white"/>
<path d="M171.504 0.385895V24.6131H167.224V0.385895H171.504Z" fill="white"/>
<path d="M189.478 4.23054V0.385895H214.076V4.23054H203.927V24.6131H199.627V4.23054H189.478Z" fill="white"/>
<path d="M245.413 18.8171H232.417L229.841 24.6131H225.386L236.484 0.385895H241.559L252.656 24.6131H248.008L245.413 18.8171ZM243.767 15.1077L238.925 4.15328L234.063 15.1077H243.767Z" fill="white"/>
<path d="M274.31 0.385895V20.7491H289.843V24.6131H270.03V0.385895H274.31Z" fill="white"/>
<path d="M312.097 0.385895V24.6131H307.816V0.385895H312.097Z" fill="white"/>
<path d="M330.071 4.23054V0.385895H354.668V4.23054H344.519V24.6131H340.22V4.23054H330.071Z" fill="white"/>
<path d="M397.239 0.385895L386.064 15.6293V24.6131H381.783V15.6293L370.666 0.385895H375.799L384.03 11.9006L392.261 0.385895H397.239Z" fill="white"/>
</svg>
